<svg width="24" height="24" viewBox="0 0 24 24" fill="none" xmlns="http://www.w3.org/2000/svg">
<path d="M20.4528 5.98982C17.7026 3.93182 15.0677 3.98966 15.0677 3.98966L14.7984 4.29734C18.0679 5.27822 19.5874 6.72062 19.5874 6.72062C14.9095 4.14518 8.95127 4.16366 4.08575 6.72062C4.08575 6.72062 5.66279 5.20118 9.12479 4.2203L8.93255 3.98942C8.93255 3.98942 6.31679 3.93182 3.54743 5.98958C3.54743 5.98958 0.777832 10.9708 0.777832 17.1061C0.777832 17.1061 2.39351 19.8757 6.64391 20.0104C6.64391 20.0104 7.35551 19.1641 7.93247 18.4333C5.48999 17.7025 4.56671 16.1831 4.56671 16.1831C6.10127 17.1433 7.65287 17.7443 9.58655 18.1257C12.7325 18.7732 16.6457 18.1074 19.5684 16.1831C19.5684 16.1831 18.6067 17.7409 16.0872 18.4525C16.6642 19.1641 17.3566 19.9912 17.3566 19.9912C21.607 19.8565 23.2224 17.0869 23.2224 17.1064C23.2222 10.971 20.4528 5.98982 20.4528 5.98982ZM8.41319 15.3177C7.33607 15.3177 6.45143 14.3752 6.45143 13.2021C6.53015 10.3924 10.3159 10.401 10.375 13.2021C10.375 14.3752 9.50927 15.3177 8.41319 15.3177ZM15.433 15.3177C14.3558 15.3177 13.4712 14.3752 13.4712 13.2021C13.5576 10.3979 17.2961 10.3967 17.3947 13.2021C17.3947 14.3752 16.5293 15.3177 15.433 15.3177Z" fill="white"/>
</svg>
