<svg width="24" height="24" viewBox="0 0 24 24" fill="none" xmlns="http://www.w3.org/2000/svg">
<path d="M12 10C13.1 10 14 9.1 14 8V4C14 2.9 13.1 2 12 2C10.9 2 10 2.9 10 4V8C10 9.1 10.9 10 12 10Z" fill="white"/>
<path d="M19.1 4.9C18.8 4.6 18.5 4.5 18 4.5C17.2 4.5 16.5 5.2 16.5 6C16.5 6.4 16.7 6.8 16.9 7.1C18.2 8.4 18.9 10.1 18.9 12C18.9 15.9 15.8 19 11.9 19C8 19 4.9 15.9 4.9 12C4.9 10.1 5.7 8.3 7 7.1C7.3 6.8 7.5 6.4 7.5 6C7.5 5.2 6.8 4.5 6 4.5C5.6 4.5 5.2 4.7 4.9 4.9C3.1 6.7 2 9.2 2 12C2 17.5 6.5 22 12 22C17.5 22 22 17.5 22 12C22 9.2 20.9 6.7 19.1 4.9Z" fill="white"/>
</svg>
