<svg width="32" height="16" viewBox="0 0 32 16" fill="none" xmlns="http://www.w3.org/2000/svg">
<path fill-rule="evenodd" clip-rule="evenodd" d="M24.2208 0.163574C22.4394 0.163574 20.4946 1.11148 18.4353 2.99093C17.4616 3.86728 16.6168 4.80809 15.997 5.57332C15.9835 5.57512 15.9835 5.58948 15.9835 5.58948C13.7608 3.00727 10.7701 0.163574 7.79562 0.163574C4.33656 0.179086 1.39278 2.47654 0.403499 5.64465C0.280374 5.90826 0.226583 6.09576 0.21246 6.1452C0.0817153 6.73355 0 7.33824 0 7.97562C0.0163431 12.3065 3.49742 15.8366 7.77931 15.8366C9.5607 15.8366 11.5055 14.8887 13.5648 13.0093C14.5453 12.1268 15.3952 11.1789 16.0162 10.4107C16.0162 10.4107 15.0193 9.28307 13.9243 8.07368C13.336 8.80912 12.4698 9.80605 11.4892 10.7049C9.65876 12.3719 8.46572 12.7151 7.77931 12.7151C5.21344 12.7151 3.12153 10.6069 3.12153 7.99196C3.12153 5.40976 5.1971 3.3015 7.77931 3.26881C7.8501 3.26881 7.93966 3.27507 8.03638 3.28759C9.64948 3.92571 11.0018 5.0156 11.3584 5.36068C12.5632 6.52086 13.7003 7.81641 13.9073 8.05225C13.9278 8.07554 13.9392 8.0885 13.9406 8.08997C15.0356 9.29936 16.0325 10.427 16.0325 10.427L16.0489 10.4107C18.2879 12.9766 21.2787 15.8366 24.2531 15.8366C27.8162 15.8206 30.8325 13.3678 31.7291 10.0358C31.7622 9.94393 31.7803 9.88076 31.7876 9.85503C31.9184 9.26667 32.0001 8.66198 32.0001 8.0246C31.9674 3.67734 28.5027 0.163574 24.2208 0.163574ZM24.0823 12.7252C24.1332 12.7293 24.1801 12.7314 24.2208 12.7314C26.803 12.6987 28.8786 10.5905 28.8786 8.00825C28.8786 5.39336 26.7867 3.2851 24.2208 3.2851C23.5344 3.2851 22.3413 3.62831 20.5109 5.2953C19.5383 6.18685 18.6783 7.17486 18.0902 7.90851C18.0907 7.90907 18.0913 7.90963 18.0918 7.91019C18.0918 7.91019 19.3338 9.34839 20.6576 10.6231C21.0222 10.976 22.4276 12.0988 24.0823 12.7252Z" fill="white"/>
</svg>
