<svg width="1440" height="1024" viewBox="0 0 1440 1024" fill="none" xmlns="http://www.w3.org/2000/svg">
<g clip-path="url(#clip0_0_3)">
<rect width="1440" height="1024" fill="#DA903F"/>
<g filter="url(#filter0_f_0_3)">
<path d="M1499 0H-179V849.28H1499V0Z" fill="#FFCE68"/>
<path d="M-288.821 334.925C-288.821 334.925 -86.3048 297.288 256.992 274.127C600.289 250.965 975.884 146.74 1258.67 146.74C1541.46 146.74 1764.96 146.74 1764.96 146.74L1764.69 355.625C1764.69 355.625 1349.16 303.078 1164.5 346.506C979.837 389.933 422.167 430.465 297.604 430.465C173.178 430.465 -232.945 473.892 -232.945 473.892L-288.821 334.925Z" fill="#FFC765"/>
<path d="M-341.154 515.004C-327.389 515.004 251.813 587.383 455.556 543.955C659.299 500.528 1442.24 355.77 1567.35 404.988C1692.32 454.205 1681.42 476.353 1681.42 476.353L1583.43 671.197L-371 728.087L-341.154 515.004Z" fill="#FFC765"/>
<path d="M525.665 648.915C510.126 650.227 493.906 650.508 481.775 646.665C456.968 638.885 436.25 619.387 413.897 619.387C391.543 619.387 369.871 611.794 351.334 608.982C332.797 606.17 306.49 610.951 279.23 617.981C251.969 625.011 224.845 592.953 197.585 587.891C170.324 582.923 150.56 595.484 127.525 581.61C104.354 567.831 53.5131 527.148 27.8882 527.148C-0.462662 527.148 -26.2238 495.277 -52.3939 494.34C-78.5639 493.402 -72.4303 545.24 -105.961 545.24C-139.491 545.24 -155.438 589.203 -177.656 596.983C-191.15 601.67 -206.007 608.888 -221 613.95L-221 867.193H977.371H1491.5L1499 492.184C1477.6 474.561 1458.25 461.062 1447.34 461.531C1433.03 462.094 1406.18 499.495 1378.37 516.181C1348.66 533.991 1359.02 492.277 1285.55 555.457C1263.2 574.674 1218.49 596.421 1187.41 602.045C1156.47 607.67 1108.49 603.733 1077.42 595.671C1046.34 587.61 1016.76 592.484 995.635 595.765C979.415 598.296 956.516 611.232 935.253 617.044C923.94 614.981 914.399 616.762 907.039 619.949C882.368 619.949 849.928 620.324 825.257 628.105C797.043 637.01 749.201 633.542 729.573 633.542C717.169 633.542 693.044 641.416 668.101 650.227C666.329 649.665 664.693 649.196 663.194 648.633C632.253 638.041 583.184 645.259 565.874 645.259C559.604 645.259 550.063 646.478 539.295 647.696L525.665 648.915Z" fill="#F5B249"/>
<path opacity="0.3" d="M797.906 694.799C813.026 696.204 828.828 696.579 840.679 692.27C864.79 683.653 885.087 662.111 906.882 662.111C928.677 662.111 949.791 653.775 967.908 650.59C986.025 647.406 1011.63 652.745 1038.2 660.519C1064.76 668.293 1091.19 632.794 1117.75 627.362C1144.31 621.836 1163.52 635.698 1186.13 620.431C1208.74 605.164 1258.19 588.398 1283.26 588.398C1310.91 588.398 1335.97 553.181 1361.45 552.151C1386.92 551.121 1381.06 608.349 1413.62 608.349C1446.31 608.349 1461.84 563.203 1483.64 571.82C1496.71 576.972 1511.29 585.027 1526 590.553V867.193H357.78H-151L-150.319 637.571C-129.477 618.089 -68.1785 571.633 -57.5533 572.007C-43.5227 572.569 -41.4794 568.823 -14.3717 587.274C14.6431 606.944 -14.3717 587.274 57.1436 657.053C78.9388 678.314 117.08 676.16 147.321 682.436C177.562 688.711 224.285 684.309 254.526 675.411C284.767 666.513 313.645 671.945 334.214 675.505C350.016 678.221 372.356 692.551 393.061 699.014C404.095 696.672 413.358 698.639 420.578 702.198C444.689 702.198 476.155 702.573 500.402 711.19C527.919 721.025 580.091 677.659 599.298 677.659C611.421 677.659 634.851 686.369 659.234 696.11C661.005 695.548 662.504 694.986 664.002 694.424C694.243 682.717 741.92 690.772 758.811 690.678C764.941 690.678 774.204 691.989 784.693 693.3L797.906 694.799Z" fill="#9C4226"/>
<path d="M-362.687 138.778C-352.329 130.093 99.3126 193.062 262.171 172.796C425.029 152.53 806.485 143.845 811.527 132.264C816.57 120.683 418.215 140.949 270.893 129.369C123.571 117.788 -333.522 88.1128 -333.522 88.1128L-362.687 138.778Z" fill="#FFC765"/>
<path d="M1816.07 216.224C1789.63 213.328 1167.23 243.583 930.093 275.43C692.961 307.276 368.199 334.925 509.661 334.925C651.122 334.925 947.538 288.168 1168.18 275.43C1388.82 262.546 1724.35 259.651 1724.35 259.651L1816.07 216.224Z" fill="#FFC765"/>
<path d="M-314.579 389.933C-267.698 387.182 201.524 364.89 247.452 364.455C293.243 363.876 -288.958 430.465 -288.958 430.465L-314.579 389.933Z" fill="#FFCE68"/>
<path fill-rule="evenodd" clip-rule="evenodd" d="M610.168 398.704C582.502 349.776 532.077 391.756 516.677 419.115C507.683 403.191 493.1 402.178 475.656 402.178C459.984 402.178 465.844 428.669 448.809 422.589C410.377 408.982 392.251 427.076 357.908 427.076C332.423 427.076 305.575 427.8 279 428.09V432.722C300.396 434.893 327.244 437.354 334.876 438.368C413.375 449.948 505.639 440.684 587.136 440.684C622.024 440.684 655.141 439.526 689.62 439.526C694.663 439.526 721.783 441.407 722.874 438.368C732.413 413.18 680.626 427.076 676.81 425.918C676.81 425.918 670.268 388.86 610.168 398.704Z" fill="#FFCE68"/>
<path fill-rule="evenodd" clip-rule="evenodd" d="M1081.37 524.702C1081.09 524.702 1041.71 483.012 1041.71 503.133C1041.71 496.185 1024.95 506.463 1014.86 497.488C987.196 448.56 936.771 490.539 921.371 517.899C912.377 501.975 897.794 500.962 880.35 500.962C864.678 500.962 870.538 527.453 853.502 521.373C815.071 507.766 796.945 525.86 762.602 525.86C737.117 525.86 710.269 526.584 683.694 526.874V531.506C705.09 533.677 731.938 536.138 739.57 537.152C818.069 548.732 910.332 539.468 991.83 539.468C1026.72 539.468 1059.83 538.31 1094.31 538.31C1099.36 538.31 1126.48 540.191 1127.57 537.152C1136.83 511.964 1085.18 525.86 1081.37 524.702Z" fill="#FFC765"/>
<path d="M1066 256.112C1067.63 256.112 1069.27 255.822 1070.9 255.678C1073.22 255.388 1075.67 255.099 1077.99 254.664C1083.58 253.796 1089.03 253.651 1094.62 253.072C1097.34 252.782 1100.48 252.638 1103.2 253.217C1105.52 253.651 1107.84 254.52 1110.15 254.809C1112.33 255.099 1114.38 256.112 1116.29 256.98C1114.92 261.034 1118.06 264.653 1121.87 265.232C1122.15 265.232 1122.56 265.232 1122.83 265.232C1123.37 265.666 1123.78 266.1 1124.46 266.1C1124.6 266.245 1124.74 266.245 1124.87 266.245C1125.14 266.245 1125.28 266.39 1125.55 266.1C1125.69 266.1 1125.96 266.1 1126.1 265.955C1126.64 265.666 1126.92 264.797 1127.05 264.074C1127.6 264.508 1128.14 264.942 1128.69 265.087C1128.82 265.087 1128.96 264.942 1128.82 264.797C1128.42 264.508 1128.14 264.218 1127.73 263.929C1127.87 264.074 1128.01 264.074 1128.28 264.218C1128.82 264.653 1129.51 264.942 1130.19 265.087C1130.32 265.087 1130.46 264.797 1130.19 264.797C1129.37 264.508 1128.28 263.35 1127.73 262.626C1128.69 263.639 1130.19 264.942 1131.69 264.797C1131.82 264.797 1131.82 264.653 1131.69 264.508C1131.14 264.363 1130.6 263.929 1130.05 263.35C1130.19 263.495 1130.46 263.639 1130.6 263.784C1131.14 264.074 1131.69 264.074 1132.23 264.218C1132.37 264.218 1132.37 264.074 1132.37 264.074C1132.1 263.929 1131.82 263.639 1131.55 263.495C1132.23 263.639 1132.78 263.639 1133.32 263.639C1133.46 263.639 1133.46 263.495 1133.32 263.35C1131.82 262.626 1130.05 261.757 1129.23 260.02C1128.82 259.441 1128.69 258.718 1128.42 257.994C1128.42 257.56 1128.42 257.125 1128.42 256.691C1128.96 256.546 1129.51 256.257 1129.91 255.967C1132.78 254.52 1135.23 252.638 1137.96 250.756C1139.86 249.453 1141.77 246.847 1143.41 245.979C1144.63 245.255 1146.13 244.242 1147.63 244.242C1148.18 244.242 1148.59 243.952 1148.99 243.663C1148.18 244.531 1149.68 243.518 1149.95 243.373C1155.26 240.912 1160.71 238.741 1166.03 236.28C1168.07 235.412 1170.8 235.122 1172.44 233.674C1173.39 232.806 1177.34 231.358 1177.21 230.056C1177.21 230.2 1177.48 230.2 1177.48 230.056V229.911C1177.48 229.766 1177.34 229.621 1177.21 229.766C1176.52 230.779 1174.75 231.214 1173.8 231.937C1172.44 232.806 1170.94 233.385 1169.57 233.964C1167.26 234.977 1164.53 235.556 1161.94 235.991C1158.94 236.425 1155.81 237.149 1152.95 238.162C1151.18 238.741 1148.86 239.175 1147.09 240.189C1144.77 240.478 1141.91 241.926 1140 243.228C1137.82 244.821 1135.37 246.124 1133.19 247.861C1131.14 249.453 1128.28 251.335 1126.92 253.651C1125.55 253.362 1123.92 253.651 1122.83 253.796C1121.33 253.941 1119.15 254.23 1117.79 255.388C1115.61 254.664 1113.42 253.796 1111.52 252.927C1108.93 251.769 1106.2 250.901 1103.34 250.322C1100.48 249.743 1097.75 250.466 1094.89 250.611C1092.3 250.901 1089.71 251.624 1087.12 251.914C1084.53 252.203 1081.53 252.783 1078.95 253.506C1076.08 254.23 1072.95 254.52 1070.09 254.954C1068.45 255.243 1064.23 254.809 1063 256.401C1063.55 255.822 1065.18 256.112 1066 256.112Z" fill="#DA903F"/>
<path d="M1287.59 276.523C1288.68 276.523 1289.64 276.233 1290.73 276.089C1292.23 275.799 1293.73 275.51 1295.23 275.075C1298.77 274.207 1302.31 274.062 1305.72 273.483C1307.49 273.193 1309.4 273.049 1311.17 273.628C1312.67 274.062 1314.17 274.93 1315.53 275.22C1316.9 275.51 1318.12 276.523 1319.48 277.391C1318.67 281.445 1320.71 285.064 1323.03 285.643C1323.16 285.643 1323.44 285.643 1323.71 285.643C1323.98 286.077 1324.39 286.511 1324.66 286.511C1324.8 286.656 1324.8 286.656 1324.94 286.656C1325.07 286.656 1325.21 286.801 1325.34 286.511C1325.48 286.511 1325.62 286.511 1325.62 286.366C1325.89 286.077 1326.16 285.208 1326.3 284.484C1326.71 284.919 1326.98 285.353 1327.39 285.498C1327.53 285.498 1327.53 285.353 1327.53 285.208C1327.25 284.919 1327.12 284.629 1326.84 284.34C1326.98 284.485 1326.98 284.485 1327.12 284.629C1327.53 285.064 1327.93 285.353 1328.34 285.498C1328.48 285.498 1328.48 285.208 1328.34 285.208C1327.8 284.919 1327.12 283.761 1326.71 283.037C1327.39 284.05 1328.34 285.353 1329.16 285.208C1329.3 285.208 1329.3 285.064 1329.16 284.919C1328.75 284.774 1328.48 284.34 1328.07 283.761C1328.21 283.905 1328.34 284.05 1328.48 284.195C1328.75 284.485 1329.16 284.485 1329.57 284.629C1329.71 284.629 1329.71 284.484 1329.57 284.484C1329.43 284.34 1329.16 284.05 1329.02 283.905C1329.43 284.05 1329.84 284.05 1330.11 284.05C1330.25 284.05 1330.25 283.905 1330.11 283.761C1329.16 283.037 1328.07 282.168 1327.53 280.431C1327.25 279.852 1327.25 279.128 1326.98 278.405C1326.98 277.97 1326.98 277.536 1326.98 277.102C1327.25 276.957 1327.66 276.668 1327.93 276.378C1329.84 274.93 1331.34 273.049 1333.11 271.167C1334.34 269.864 1335.57 267.258 1336.66 266.39C1337.47 265.666 1338.43 264.653 1339.25 264.653C1339.65 264.653 1339.93 264.363 1340.2 264.074C1339.65 264.942 1340.61 263.929 1340.88 263.784C1344.29 261.323 1347.7 259.152 1351.1 256.691C1352.33 255.822 1354.1 255.533 1355.19 254.085C1355.74 253.217 1358.33 251.769 1358.19 250.466C1358.19 250.611 1358.33 250.611 1358.33 250.466V250.322C1358.33 250.177 1358.19 250.032 1358.19 250.177C1357.78 251.19 1356.69 251.624 1356.01 252.348C1355.19 253.217 1354.24 253.796 1353.28 254.375C1351.78 255.388 1350.01 255.967 1348.51 256.401C1346.6 256.836 1344.56 257.56 1342.79 258.573C1341.7 259.152 1340.2 259.586 1339.11 260.599C1337.61 260.889 1335.84 262.337 1334.61 263.639C1333.25 265.232 1331.61 266.535 1330.25 268.272C1328.89 269.864 1327.12 271.746 1326.3 274.062C1325.48 273.772 1324.39 274.062 1323.71 274.207C1322.76 274.351 1321.39 274.641 1320.57 275.799C1319.21 275.075 1317.85 274.207 1316.62 273.338C1314.99 272.18 1313.22 271.312 1311.44 270.733C1309.67 270.153 1307.9 270.877 1306.13 271.022C1304.49 271.312 1302.86 272.035 1301.22 272.325C1299.59 272.614 1297.68 273.193 1296.04 273.917C1294.14 274.641 1292.23 274.931 1290.46 275.365C1289.37 275.654 1286.78 275.22 1285.96 276.812C1285.96 276.233 1287.05 276.523 1287.59 276.523Z" fill="#DA903F"/>
<path d="M1188.52 351.218C1189.2 351.218 1189.88 350.928 1190.42 350.784C1191.38 350.494 1192.33 350.205 1193.29 349.77C1195.47 348.902 1197.65 348.757 1199.83 348.178C1200.92 347.888 1202.14 347.744 1203.24 348.323C1204.19 348.757 1205.14 349.626 1205.96 349.915C1206.78 350.205 1207.6 351.218 1208.41 352.086C1207.87 356.14 1209.1 359.759 1210.59 360.338C1210.73 360.338 1210.87 360.338 1211 360.338C1211.28 360.772 1211.41 361.206 1211.68 361.206C1211.68 361.351 1211.82 361.351 1211.82 361.351C1211.96 361.351 1211.96 361.496 1212.09 361.206C1212.23 361.206 1212.23 361.206 1212.23 361.061C1212.5 360.772 1212.64 359.903 1212.64 359.18C1212.91 359.614 1213.05 360.048 1213.32 360.193C1213.46 360.193 1213.46 360.048 1213.32 359.903C1213.18 359.614 1213.05 359.324 1212.91 359.035C1212.91 359.18 1213.05 359.18 1213.05 359.324C1213.32 359.759 1213.46 360.048 1213.87 360.193C1214 360.193 1214 359.903 1213.87 359.903C1213.59 359.614 1213.18 358.456 1212.91 357.732C1213.32 358.745 1213.87 360.048 1214.41 359.903C1214.41 359.903 1214.41 359.759 1214.41 359.614C1214.14 359.469 1214 359.035 1213.73 358.456C1213.87 358.601 1213.87 358.745 1214 358.89C1214.27 359.18 1214.41 359.18 1214.68 359.324V359.18C1214.55 359.035 1214.41 358.745 1214.41 358.601C1214.68 358.745 1214.96 358.745 1215.09 358.745C1215.09 358.745 1215.09 358.601 1215.09 358.456C1214.41 357.732 1213.87 356.863 1213.46 355.126C1213.32 354.547 1213.32 353.824 1213.18 353.1C1213.18 352.665 1213.18 352.231 1213.18 351.797C1213.46 351.652 1213.59 351.363 1213.87 351.073C1214.96 349.626 1215.91 347.744 1217 345.862C1217.82 344.559 1218.5 341.953 1219.18 341.085C1219.59 340.361 1220.27 339.348 1220.82 339.348C1221.09 339.348 1221.22 339.058 1221.36 338.769C1221.09 339.637 1221.63 338.624 1221.77 338.479C1223.81 336.018 1225.99 333.847 1228.17 331.386C1228.99 330.518 1230.08 330.228 1230.76 328.78C1231.17 327.912 1232.67 326.464 1232.67 325.161C1232.67 325.306 1232.81 325.306 1232.81 325.161V325.017C1232.81 324.872 1232.81 324.727 1232.67 324.872C1232.4 325.885 1231.72 326.32 1231.31 327.043C1230.76 327.912 1230.22 328.491 1229.67 329.07C1228.72 330.083 1227.63 330.662 1226.68 331.097C1225.45 331.531 1224.22 332.255 1223.13 333.268C1222.45 333.847 1221.5 334.281 1220.82 335.295C1219.86 335.584 1218.77 337.032 1217.95 338.334C1217 339.927 1216.05 341.23 1215.23 342.967C1214.41 344.559 1213.32 346.441 1212.78 348.757C1212.23 348.467 1211.55 348.757 1211.14 348.902C1210.59 349.047 1209.64 349.336 1209.1 350.494C1208.28 349.77 1207.32 348.902 1206.64 348.033C1205.55 346.875 1204.6 346.007 1203.37 345.428C1202.28 344.849 1201.19 345.572 1199.96 345.717C1198.87 346.007 1197.92 346.73 1196.97 347.02C1195.88 347.309 1194.79 347.888 1193.7 348.612C1192.61 349.336 1191.38 349.626 1190.15 350.06C1189.47 350.349 1187.84 349.915 1187.29 351.507C1187.56 351.073 1188.24 351.218 1188.52 351.218Z" fill="#DA903F"/>
<ellipse opacity="0.25" cx="33" cy="682.462" rx="18" ry="5.53846" fill="url(#paint0_radial_0_3)"/>
<g clip-path="url(#clip1_0_3)">
<path d="M40.7533 683.015C42.4149 682.6 44.3533 682.115 44.2149 680.039C44.0764 678.377 42.2764 676.646 40.6149 675.4C37.6379 672.285 32.9302 670.139 29.0533 670.692C24.3456 671.385 21.4379 676.508 24.3456 680.592C28.0149 685.923 35.4918 684.262 40.7533 683.015Z" fill="#B97D3D"/>
<path d="M35.2842 676.231C34.1073 673.877 28.915 671.8 26.5611 673.946C25.938 674.5 25.315 675.054 25.1765 675.815C24.8304 677.685 26.2842 679.139 27.8765 679.831C29.6073 680.662 31.8227 681.492 33.6919 680.662C35.4227 679.831 36.115 677.962 35.2842 676.231Z" fill="#E6A257"/>
<path d="M36.4614 671.938C35.9768 671.731 35.146 672.215 35.5614 672.838C36.3921 674.015 38.4691 676.023 38.746 677.408C38.9537 678.308 40.3383 681.354 33.1383 681.423C28.9152 681.492 25.1768 679.831 23.3075 675.677C22.6152 676.577 22.7537 679.069 23.0306 679.692C24.346 682.738 27.046 683.638 30.1614 683.985C33.9691 684.4 38.5383 684.469 42.2075 683.154C48.5767 680.938 39.1614 673.185 36.4614 671.938Z" fill="#DA903F"/>
<path d="M36.9457 671.869C33.415 669.169 27.1842 669.308 24.6919 673.046C28.1534 671.454 31.8919 670.969 35.0073 673.115C35.7688 673.6 38.0534 675.123 38.3996 677.685C38.6765 679.692 37.7765 680.662 37.8457 680.592C41.515 678.515 39.6457 674.015 36.9457 671.869Z" fill="#FBC993"/>
<path d="M42.6227 676.992C42.2073 683.154 33.6919 683.431 32.0304 683.292C29.1227 683.154 24.9689 682.254 22.8227 677.823C21.5073 682.462 26.6996 685.231 33.6919 684.885C35.5612 684.816 40.3381 684.123 42.6227 683.154C45.8073 681.7 43.9381 678.1 42.6227 676.992Z" fill="#B77A38"/>
</g>
<ellipse opacity="0.25" cx="1250" cy="682" rx="26" ry="8" fill="url(#paint1_radial_0_3)"/>
<g clip-path="url(#clip2_0_3)">
<path d="M1261.2 682.8C1263.6 682.2 1266.4 681.5 1266.2 678.5C1266 676.1 1263.4 673.6 1261 671.8C1256.7 667.3 1249.9 664.2 1244.3 665C1237.5 666 1233.3 673.4 1237.5 679.3C1242.8 687 1253.6 684.6 1261.2 682.8Z" fill="#B97D3D"/>
<path d="M1253.3 673C1251.6 669.6 1244.1 666.6 1240.7 669.7C1239.8 670.5 1238.9 671.3 1238.7 672.4C1238.2 675.1 1240.3 677.2 1242.6 678.2C1245.1 679.4 1248.3 680.6 1251 679.4C1253.5 678.2 1254.5 675.5 1253.3 673Z" fill="#E6A257"/>
<path d="M1255 666.8C1254.3 666.5 1253.1 667.2 1253.7 668.1C1254.9 669.8 1257.9 672.7 1258.3 674.7C1258.6 676 1260.6 680.4 1250.2 680.5C1244.1 680.6 1238.7 678.2 1236 672.2C1235 673.5 1235.2 677.1 1235.6 678C1237.5 682.4 1241.4 683.7 1245.9 684.2C1251.4 684.8 1258 684.9 1263.3 683C1272.5 679.8 1258.9 668.6 1255 666.8Z" fill="#DA903F"/>
<path d="M1255.7 666.7C1250.6 662.8 1241.6 663 1238 668.4C1243 666.1 1248.4 665.4 1252.9 668.5C1254 669.2 1257.3 671.4 1257.8 675.1C1258.2 678 1256.9 679.4 1257 679.3C1262.3 676.3 1259.6 669.8 1255.7 666.7Z" fill="#FBC993"/>
<path d="M1263.9 674.1C1263.3 683 1251 683.4 1248.6 683.2C1244.4 683 1238.4 681.7 1235.3 675.3C1233.4 682 1240.9 686 1251 685.5C1253.7 685.4 1260.6 684.4 1263.9 683C1268.5 680.9 1265.8 675.7 1263.9 674.1Z" fill="#B77A38"/>
</g>
<ellipse opacity="0.25" cx="108.5" cy="812" rx="18.5" ry="6" fill="url(#paint2_radial_0_3)"/>
<g clip-path="url(#clip3_0_3)">
<path d="M106.9 792.7C109.9 792.8 113.1 797.6 114.3 800.7C115.1 802.7 116.4 806.5 116.8 808.8C117.4 813 111.1 813.5 107.8 814.1C107.3 814.2 106.5 814.2 105.6 814.1C105.7 810.3 108.9 807.6 108.8 804.6C108.7 801.2 108.7 795.7 106.9 792.7Z" fill="#DA903F"/>
<path d="M98.9999 808.1C99.3999 800.9 104 792.9 106.5 792.6C106.6 792.6 106.8 792.6 107 792.6C108.8 795.6 108.8 801.1 108.8 804.4C108.9 807.4 105.7 810.1 105.6 813.9C102.8 813.6 98.7999 812.1 98.9999 808.1Z" fill="#B77A38"/>
<path d="M102.6 796C103.1 794.9 103.6 793.8 104.8 792.9C105.6 792.3 106.4 791.6 107.8 792.4C109.4 793.3 112 795.7 112.5 797.3C111.8 797.4 110.9 795.5 108.9 794.2C110.5 797.5 109.5 803.5 108.5 806.1C108.4 804.3 108.6 801.3 108.2 799.4C107.9 796.9 107.3 796 106.7 794.4C106 793.2 105.4 794.7 104.7 795.1C104.1 795.4 103.5 796 103 796.6C102.7 797.2 101.9 799.6 101 799.7C101.1 799.5 102.3 796.7 102.6 796Z" fill="#FBC993"/>
</g>
<ellipse opacity="0.25" cx="1286" cy="889" rx="26" ry="8" fill="url(#paint3_radial_0_3)"/>
<g clip-path="url(#clip4_0_3)">
<path d="M1291.2 892.4C1294.3 891.8 1298.5 891 1301 889C1301.3 888.8 1301.5 888.6 1301.7 888.3C1301.2 885.4 1299.7 882.3 1299.2 881.8C1297.4 880 1294.6 879.7 1292.2 879.5C1289.7 879.3 1286.9 879.5 1284.7 881C1282.4 882.7 1281.6 885.5 1281.1 888.1C1280.9 889.2 1280.3 891 1280.4 892.4C1283.9 893.1 1287.6 893.1 1291.2 892.4Z" fill="#B77A38"/>
<path d="M1284.3 878.3C1285.8 877.3 1287.6 876.8 1289.4 876.4C1290.3 876.2 1291.2 876.1 1292.1 876C1292.7 875.9 1296 875.9 1297.1 873.5C1296.5 873 1293.1 870.9 1288.3 871.4C1283 871.9 1276.2 875.1 1274.1 876.5C1273.2 877.1 1272.5 877.8 1271.9 878.5C1273.6 879.1 1275.2 880.3 1277.1 880.6C1280.2 881.3 1281.9 879.9 1284.3 878.3Z" fill="#B97D3D"/>
<path d="M1269.1 886.7C1269.4 887.6 1271.3 888.6 1272 889.2C1274.6 890.9 1277.4 892 1280.4 892.5C1280.3 891.1 1280.8 889.3 1281.1 888.2C1281.6 885.6 1282.5 882.7 1284.7 881.1C1286.8 879.6 1289.6 879.4 1292.2 879.6C1294.6 879.8 1297.4 880 1299.2 881.9C1299.7 882.4 1301.2 885.5 1301.7 888.4C1302.9 886.9 1302.5 884.9 1302 883C1301.1 879.5 1299.9 876 1297.1 873.5C1296 876 1292.7 875.9 1292.1 876C1291.2 876.1 1290.3 876.3 1289.4 876.4C1287.6 876.7 1285.9 877.2 1284.3 878.3C1281.9 879.9 1280.2 881.3 1277.1 880.7C1275.2 880.3 1273.6 879.2 1271.9 878.5C1270.8 879.8 1270.1 881.4 1269.6 883.3C1269.4 884.2 1268.8 885.8 1269.1 886.7Z" fill="#DA903F"/>
<path d="M1289.4 871C1287 871.1 1284.6 871.7 1282.4 872.6C1280.9 873.1 1280 873.5 1278.6 874.1C1277.8 874.4 1275.5 875.2 1274.8 875.6C1274.2 875.9 1272.8 877 1271.9 878.5C1275.9 876.9 1279.8 874.6 1284 873.5C1286.6 872.9 1288.8 872.7 1291.4 873.5C1293 874 1295.4 873.9 1296.8 873.1C1294.3 871.4 1291.5 871 1289.4 871Z" fill="#FBC993"/>
</g>
<ellipse opacity="0.25" cx="1398" cy="738.077" rx="16" ry="4.92308" fill="url(#paint4_radial_0_3)"/>
<g clip-path="url(#clip5_0_3)">
<path d="M1401.2 740.169C1403.11 739.8 1405.69 739.308 1407.23 738.077C1407.42 737.954 1407.54 737.831 1407.66 737.646C1407.35 735.862 1406.43 733.954 1406.12 733.646C1405.02 732.539 1403.29 732.354 1401.82 732.231C1400.28 732.108 1398.55 732.231 1397.2 733.154C1395.78 734.2 1395.29 735.923 1394.98 737.523C1394.86 738.2 1394.49 739.308 1394.55 740.169C1396.71 740.6 1398.98 740.6 1401.2 740.169Z" fill="#B77A38"/>
<path d="M1396.95 731.492C1397.88 730.877 1398.98 730.569 1400.09 730.323C1400.65 730.2 1401.2 730.139 1401.75 730.077C1402.12 730.015 1404.15 730.015 1404.83 728.539C1404.46 728.231 1402.37 726.939 1399.42 727.246C1396.15 727.554 1391.97 729.523 1390.68 730.385C1390.12 730.754 1389.69 731.185 1389.32 731.615C1390.37 731.985 1391.35 732.723 1392.52 732.908C1394.43 733.339 1395.48 732.477 1396.95 731.492Z" fill="#B97D3D"/>
<path d="M1387.6 736.662C1387.78 737.215 1388.95 737.831 1389.38 738.2C1390.98 739.246 1392.71 739.923 1394.55 740.231C1394.49 739.369 1394.8 738.262 1394.98 737.585C1395.29 735.985 1395.85 734.2 1397.2 733.215C1398.49 732.292 1400.22 732.169 1401.82 732.292C1403.29 732.415 1405.02 732.539 1406.12 733.708C1406.43 734.015 1407.35 735.923 1407.66 737.708C1408.4 736.785 1408.15 735.554 1407.85 734.385C1407.29 732.231 1406.55 730.077 1404.83 728.539C1404.15 730.077 1402.12 730.015 1401.75 730.077C1401.2 730.139 1400.65 730.262 1400.09 730.323C1398.98 730.508 1397.94 730.815 1396.95 731.492C1395.48 732.477 1394.43 733.339 1392.52 732.969C1391.35 732.723 1390.37 732.046 1389.32 731.615C1388.65 732.415 1388.22 733.4 1387.91 734.569C1387.78 735.123 1387.42 736.108 1387.6 736.662Z" fill="#DA903F"/>
<path d="M1400.09 727C1398.62 727.062 1397.14 727.431 1395.78 727.985C1394.86 728.292 1394.31 728.538 1393.45 728.908C1392.95 729.092 1391.54 729.585 1391.11 729.831C1390.74 730.015 1389.88 730.692 1389.32 731.615C1391.78 730.631 1394.18 729.215 1396.77 728.538C1398.37 728.169 1399.72 728.046 1401.32 728.538C1402.31 728.846 1403.78 728.785 1404.65 728.292C1403.11 727.246 1401.38 727 1400.09 727Z" fill="#FBC993"/>
</g>
<ellipse opacity="0.25" cx="411" cy="902.955" rx="26" ry="10.6469" fill="url(#paint5_radial_0_3)"/>
<g clip-path="url(#clip6_0_3)">
<path d="M404.8 891.244C406.9 893.107 408.8 895.103 411.4 895.103C413.9 895.103 416.7 894.305 419.1 893.506C420.9 892.841 423.1 892.309 424.6 890.845C419.7 879.266 406.5 878.468 403.9 879.665C402 880.597 399.8 882.46 398 884.856C398.3 885.122 398.5 885.388 398.7 885.654C400.7 887.517 402.7 889.381 404.8 891.244Z" fill="#B97D3D"/>
<path d="M424.6 890.712C423.1 892.176 420.9 892.841 419.1 893.373C416.7 894.172 413.9 895.103 411.4 894.97C408.8 894.97 406.9 892.974 404.8 891.111C402.7 889.381 400.7 887.518 398.7 885.654C398.5 885.388 398.3 885.122 398 884.856C397 886.187 396.3 888.05 395.7 890.179C395.8 890.179 399.7 894.039 401.3 895.237C403.6 896.834 405.3 898.431 407.1 900.826C408 902.024 408.6 902.822 409.8 902.822C410.5 902.822 411.2 902.423 412 902.423C413.1 902.29 414 902.29 415 902.822C416.5 903.754 417.3 905.484 417.5 907.614C421.3 906.682 425.4 905.218 426.7 904.02C427.4 899.628 425.5 892.708 424.6 890.712Z" fill="#DA903F"/>
<path d="M415.1 902.956C414.1 902.29 413.2 902.423 412.1 902.556C411.4 902.556 410.7 902.956 410 902.956C408.7 902.956 408.1 902.157 407.3 900.959C405.5 898.564 403.7 896.967 401.5 895.37C399.9 894.172 396 890.312 395.9 890.312C395 893.506 394.5 897.366 394.1 900.294C397.8 905.883 406 908.944 411.4 908.944C412.9 908.944 415.2 908.545 417.7 907.88C417.4 905.75 416.6 903.887 415.1 902.956Z" fill="#B77A38"/>
<path d="M423.3 888.183C423.2 889.78 416.9 893.773 410.9 893.906C408.9 894.039 407.2 892.176 405.6 890.845C404.7 890.046 403.9 889.381 403 888.582C401.8 886.985 400.8 885.521 401.4 883.791C401.4 883.791 401.4 883.658 401.5 883.658C401.8 882.993 402.2 882.327 402.9 881.662C404.5 880.065 407.5 879.399 409.5 879.532C404.4 877.403 399 882.859 397.8 884.989C398.6 886.453 401.2 888.981 402.3 889.913C402.8 890.445 403.4 890.978 404 891.377C404.3 891.643 404.6 892.042 405 892.309C405.2 892.442 405.3 892.708 405.5 892.841C406.9 894.438 408.1 895.636 408.3 898.031C408.4 899.761 408.3 901.758 408.4 902.423C408.8 904.686 409.6 904.952 411 903.089C411.5 902.29 411.8 899.628 411.8 899.628C411.9 898.697 411.6 895.503 413.5 895.769C416 896.168 420.8 894.837 421.6 894.172C422.5 893.906 424.2 892.176 425.1 891.776C424.6 890.712 423.9 889.115 423.3 888.183Z" fill="#FBC993"/>
</g>
<path fill-rule="evenodd" clip-rule="evenodd" d="M1322.5 641.068C1322.5 641.068 1306.71 613.371 1282.54 612.503C1282.54 612.503 1309.12 642.109 1319.92 644.884L1322.5 641.068Z" fill="url(#paint6_linear_0_3)"/>
<path fill-rule="evenodd" clip-rule="evenodd" d="M1332.32 642.051C1332.32 642.051 1350.76 617.592 1365.23 625.34C1365.23 625.34 1352.42 635.922 1339.62 642.051H1332.32Z" fill="url(#paint7_linear_0_3)"/>
<path fill-rule="evenodd" clip-rule="evenodd" d="M1278 630.313C1278 630.313 1310.1 636.558 1323.42 643.67L1326.35 644.942C1326.41 644.884 1302.18 646.33 1278 630.313Z" fill="url(#paint8_linear_0_3)"/>
<path fill-rule="evenodd" clip-rule="evenodd" d="M1330.08 644.884C1330.08 644.884 1335.83 599.84 1350.76 590.704C1350.76 590.704 1348.12 624.531 1332.32 644.884H1330.08Z" fill="url(#paint9_linear_0_3)"/>
<path fill-rule="evenodd" clip-rule="evenodd" d="M1323.42 643.612C1323.42 643.612 1296.66 620.483 1301.14 593.133C1301.14 593.133 1321.7 624.357 1325.89 643.612H1323.42Z" fill="url(#paint10_linear_0_3)"/>
<path fill-rule="evenodd" clip-rule="evenodd" d="M1335.31 583.939C1335.31 583.939 1338.53 622.969 1330.54 644.884C1330.54 644.884 1347.2 604.003 1335.31 583.939Z" fill="url(#paint11_linear_0_3)"/>
<path fill-rule="evenodd" clip-rule="evenodd" d="M1310.9 580.238C1310.9 580.238 1308.95 619.5 1326.35 644.537C1326.29 644.48 1295.92 606.721 1310.9 580.238Z" fill="url(#paint12_linear_0_3)"/>
<path fill-rule="evenodd" clip-rule="evenodd" d="M1324.8 644.537C1324.8 644.537 1313.72 605.854 1317.51 580.065C1317.51 580.065 1333.36 610.306 1330.08 644.827L1324.8 644.537Z" fill="url(#paint13_linear_0_3)"/>
<path fill-rule="evenodd" clip-rule="evenodd" d="M1324.8 644.537C1324.8 644.537 1317.28 593.248 1327.44 577C1327.44 577 1339.16 621.697 1330.08 644.884L1324.8 644.537Z" fill="url(#paint14_linear_0_3)"/>
<path fill-rule="evenodd" clip-rule="evenodd" d="M1326.29 644.479C1326.29 644.479 1300.28 600.418 1310.85 580.18C1310.85 580.18 1290.63 611.578 1324.51 644.711L1326.29 644.479Z" fill="url(#paint15_linear_0_3)"/>
<path fill-rule="evenodd" clip-rule="evenodd" d="M1330.54 644.884C1330.54 644.884 1342.14 605.218 1335.31 583.939C1335.31 583.939 1341.05 590.646 1343.98 603.136C1346.91 615.684 1332.32 644.884 1332.32 644.884H1330.54Z" fill="url(#paint16_linear_0_3)"/>
<path fill-rule="evenodd" clip-rule="evenodd" d="M1330.54 644.884C1330.54 644.884 1351.56 619.095 1359.26 593.133C1359.26 593.133 1357.99 629.792 1333.53 644.884H1330.54Z" fill="url(#paint17_linear_0_3)"/>
<path fill-rule="evenodd" clip-rule="evenodd" d="M1324.63 644.884C1324.63 644.884 1298.1 617.245 1295.92 593.133C1295.92 593.133 1287.59 626.265 1322.33 644.884H1324.63Z" fill="url(#paint18_linear_0_3)"/>
<path fill-rule="evenodd" clip-rule="evenodd" d="M1333.53 644.884C1333.53 644.884 1366.2 636.847 1377 625.34C1377 625.34 1364.83 642.109 1333.53 644.884Z" fill="url(#paint19_linear_0_3)"/>
<path fill-rule="evenodd" clip-rule="evenodd" d="M1322.33 644.884C1322.33 644.884 1303.9 644.48 1278 630.255C1278 630.313 1295.11 646.388 1322.33 644.884Z" fill="url(#paint20_linear_0_3)"/>
<path fill-rule="evenodd" clip-rule="evenodd" d="M1377 625.34C1377 625.34 1350.3 635.286 1332.32 644.884C1332.32 644.884 1359.26 642.456 1377 625.34Z" fill="url(#paint21_linear_0_3)"/>
<path fill-rule="evenodd" clip-rule="evenodd" d="M1324.63 584.459L1329.45 585.789L1327.44 577C1327.44 577 1325.09 579.891 1324.63 584.459Z" fill="#B57C15"/>
<path fill-rule="evenodd" clip-rule="evenodd" d="M1305.79 594L1308.49 588.912L1310.85 580.238C1310.9 580.238 1306.71 586.252 1305.79 594Z" fill="#B57C15"/>
<path fill-rule="evenodd" clip-rule="evenodd" d="M1323.82 587.119L1330.49 591.398L1323.82 588.68V587.119Z" fill="#B57C15"/>
<path fill-rule="evenodd" clip-rule="evenodd" d="M1340.42 592.554L1337.2 594L1335.31 583.939C1335.31 583.939 1338.81 588.507 1340.42 592.554Z" fill="#B57C15"/>
<path fill-rule="evenodd" clip-rule="evenodd" d="M1356.9 600.071L1358.22 602.095L1359.26 593.133L1356.9 600.071Z" fill="#B57C15"/>
<path fill-rule="evenodd" clip-rule="evenodd" d="M1358.05 623.895L1362.76 627.306L1365.17 625.398C1365.23 625.34 1361.44 623.259 1358.05 623.895Z" fill="#B57C15"/>
<path fill-rule="evenodd" clip-rule="evenodd" d="M1285.18 612.677L1286.38 616.609L1282.59 612.503L1285.18 612.677Z" fill="#B57C15"/>
<path fill-rule="evenodd" clip-rule="evenodd" d="M1295 601.517L1296.55 597.643L1295.86 593.133C1295.92 593.133 1294.94 598.048 1295 601.517Z" fill="#B57C15"/>
<ellipse opacity="0.25" cx="1327" cy="641.702" rx="51" ry="11.5907" fill="url(#paint22_radial_0_3)"/>
<g clip-path="url(#clip7_0_3)">
<path fill-rule="evenodd" clip-rule="evenodd" d="M155.826 938.225C155.826 938.225 144.679 918.674 127.614 918.061C127.614 918.061 146.381 938.959 154.002 940.918L155.826 938.225Z" fill="url(#paint23_linear_0_3)"/>
<path fill-rule="evenodd" clip-rule="evenodd" d="M162.758 938.918C162.758 938.918 175.77 921.653 185.984 927.122C185.984 927.122 176.945 934.592 167.906 938.918H162.758Z" fill="url(#paint24_linear_0_3)"/>
<path fill-rule="evenodd" clip-rule="evenodd" d="M124.412 930.633C124.412 930.633 147.071 935.041 156.475 940.061L158.542 940.959C158.583 940.918 141.477 941.939 124.412 930.633Z" fill="url(#paint25_linear_0_3)"/>
<path fill-rule="evenodd" clip-rule="evenodd" d="M161.177 940.918C161.177 940.918 165.23 909.122 175.769 902.673C175.769 902.673 173.905 926.551 162.758 940.918H161.177Z" fill="url(#paint26_linear_0_3)"/>
<path fill-rule="evenodd" clip-rule="evenodd" d="M156.475 940.02C156.475 940.02 137.586 923.694 140.747 904.388C140.747 904.388 155.259 926.429 158.218 940.02H156.475Z" fill="url(#paint27_linear_0_3)"/>
<path fill-rule="evenodd" clip-rule="evenodd" d="M164.865 897.898C164.865 897.898 167.135 925.449 161.501 940.918C161.501 940.918 173.256 912.061 164.865 897.898Z" fill="url(#paint28_linear_0_3)"/>
<path fill-rule="evenodd" clip-rule="evenodd" d="M147.638 895.286C147.638 895.286 146.26 923 158.542 940.674C158.502 940.633 137.059 913.98 147.638 895.286Z" fill="url(#paint29_linear_0_3)"/>
<path fill-rule="evenodd" clip-rule="evenodd" d="M157.448 940.673C157.448 940.673 149.624 913.367 152.3 895.163C152.3 895.163 163.487 916.51 161.177 940.877L157.448 940.673Z" fill="url(#paint30_linear_0_3)"/>
<path fill-rule="evenodd" clip-rule="evenodd" d="M157.448 940.673C157.448 940.673 152.137 904.469 159.312 893C159.312 893 167.581 924.551 161.177 940.918L157.448 940.673Z" fill="url(#paint31_linear_0_3)"/>
<path fill-rule="evenodd" clip-rule="evenodd" d="M158.502 940.633C158.502 940.633 140.139 909.531 147.598 895.245C147.598 895.245 133.329 917.408 157.245 940.796L158.502 940.633Z" fill="url(#paint32_linear_0_3)"/>
<path fill-rule="evenodd" clip-rule="evenodd" d="M161.501 940.918C161.501 940.918 169.689 912.918 164.865 897.898C164.865 897.898 168.919 902.633 170.986 911.449C173.053 920.306 162.758 940.918 162.758 940.918H161.501Z" fill="url(#paint33_linear_0_3)"/>
<path fill-rule="evenodd" clip-rule="evenodd" d="M161.501 940.918C161.501 940.918 176.337 922.714 181.768 904.388C181.768 904.388 180.877 930.265 163.609 940.918H161.501Z" fill="url(#paint34_linear_0_3)"/>
<path fill-rule="evenodd" clip-rule="evenodd" d="M157.326 940.918C157.326 940.918 138.599 921.408 137.058 904.388C137.058 904.388 131.181 927.775 155.705 940.918H157.326Z" fill="url(#paint35_linear_0_3)"/>
<path fill-rule="evenodd" clip-rule="evenodd" d="M163.609 940.918C163.609 940.918 186.673 935.245 194.294 927.122C194.294 927.122 185.7 938.959 163.609 940.918Z" fill="url(#paint36_linear_0_3)"/>
<path fill-rule="evenodd" clip-rule="evenodd" d="M155.705 940.918C155.705 940.918 142.693 940.633 124.412 930.592C124.412 930.633 136.491 941.98 155.705 940.918Z" fill="url(#paint37_linear_0_3)"/>
<path fill-rule="evenodd" clip-rule="evenodd" d="M194.294 927.122C194.294 927.122 175.445 934.143 162.758 940.918C162.758 940.918 181.769 939.204 194.294 927.122Z" fill="url(#paint38_linear_0_3)"/>
<path fill-rule="evenodd" clip-rule="evenodd" d="M157.326 898.265L160.731 899.204L159.312 893C159.312 893 157.65 895.041 157.326 898.265Z" fill="#B57C15"/>
<path fill-rule="evenodd" clip-rule="evenodd" d="M144.031 905L145.936 901.408L147.598 895.286C147.638 895.286 144.679 899.531 144.031 905Z" fill="#B57C15"/>
<path fill-rule="evenodd" clip-rule="evenodd" d="M156.759 900.143L161.461 903.163L156.759 901.245V900.143Z" fill="#B57C15"/>
<path fill-rule="evenodd" clip-rule="evenodd" d="M168.473 903.98L166.203 905L164.866 897.898C164.866 897.898 167.338 901.122 168.473 903.98Z" fill="#B57C15"/>
<path fill-rule="evenodd" clip-rule="evenodd" d="M180.107 909.286L181.039 910.714L181.769 904.388L180.107 909.286Z" fill="#B57C15"/>
<path fill-rule="evenodd" clip-rule="evenodd" d="M180.917 926.102L184.241 928.51L185.944 927.163C185.984 927.122 183.309 925.653 180.917 926.102Z" fill="#B57C15"/>
<path fill-rule="evenodd" clip-rule="evenodd" d="M129.478 918.184L130.33 920.959L127.654 918.061L129.478 918.184Z" fill="#B57C15"/>
<path fill-rule="evenodd" clip-rule="evenodd" d="M136.41 910.306L137.504 907.571L137.018 904.388C137.058 904.388 136.369 907.857 136.41 910.306Z" fill="#B57C15"/>
</g>
<ellipse opacity="0.25" cx="159" cy="939.915" rx="36" ry="8.18165" fill="url(#paint39_radial_0_3)"/>
<ellipse opacity="0.25" cx="893" cy="961" rx="46" ry="14" fill="url(#paint40_radial_0_3)"/>
<g clip-path="url(#clip8_0_3)">
<path d="M910.6 933.4C905.9 931.5 901.1 930 896.2 928.9C892.5 928.1 889.3 927.8 886.6 928.1C883.2 929.2 879.1 931.1 880.4 934.9C882.4 940.7 886.2 946.7 886.2 946.7C886.2 946.7 900.4 944.1 903.2 943.5C904.8 943.2 912.5 940.8 919.2 937.8C919 937.5 918.9 937.2 918.7 937C917.4 935.2 912.8 934.2 910.6 933.4Z" fill="#E6A257"/>
<path d="M885.5 942.1C886.2 943.5 887.2 944.9 888.3 946.3C888.3 946.3 887 944.6 885.5 942.1Z" fill="#B77A38"/>
<path d="M884.4 954C885.6 951.4 888.8 947.7 890.2 945.9C889.1 944.5 886.1 943.5 885.4 942.1C884.2 940.1 882.8 937.5 881.9 934.9C880.6 931.1 883.2 929.2 886.5 928.1C883.1 928.5 880.2 929.7 877.7 931.9C873.3 935 869.8 939.7 867 944.8C869.9 947.7 874.6 950.4 878.2 951.8C880 952.5 882.5 954.2 884.4 954Z" fill="#DA903F"/>
<path d="M923.3 958.7C923.6 958.6 922.7 950.4 921.2 944C921.1 944 921 944 920.8 944.1C916.5 945.7 912.4 947.8 908.3 949.8C904.6 951.6 899.8 953 896.6 955.5C893.4 958.1 891.2 964.2 891.5 968.7C891.7 968.7 892 968.7 892.2 968.7C902.3 967.6 913.7 961.8 923.3 958.7Z" fill="#DA903F"/>
<path d="M884.4 954C882.5 954.2 879.9 952.6 878.2 951.8C874.6 950.4 870 947.7 867 944.8C864.5 949.4 862.5 954.3 861 958.5C860.8 958.9 871.2 964 880.7 966.8C881.5 964.4 882.1 960.8 882.7 958.9C883.2 957.3 883.4 955.4 884.4 954Z" fill="#B77A38"/>
<path d="M891.6 945.7C889.7 946.1 888.3 946.3 888.3 946.3C886.9 948.1 885.7 951.3 884.5 954C886.6 951.3 888.5 947.8 889.1 947.2C889.4 946.8 890.4 946.2 891.6 945.7Z" fill="#B77A38"/>
<path d="M919.2 937.7C912.4 940.8 904.8 943.1 903.2 943.4C902.8 943.5 902.3 943.6 901.6 943.7C900.5 946 899.1 949.4 897.4 951.1C895.9 952.5 893.3 952.9 892 953.5C891.1 953.9 889.2 954.6 888.3 955.2C886.1 959 885.4 962.6 884.6 966.9C884.5 967.2 884.5 967.5 884.4 967.7C887 968.3 889.5 968.7 891.5 968.6C891.2 964.2 893.4 958 896.6 955.4C899.8 952.8 904.6 951.4 908.3 949.7C912.4 947.7 916.5 945.6 920.8 944C920.9 944 921 944 921.2 943.9C920.6 941.4 919.9 939.1 919.2 937.7Z" fill="#B77A38"/>
<path d="M901.9 943.2C902.7 941.7 895.6 943.8 891.6 945.6C894.6 945 899 944.2 901.6 943.7C901.7 943.6 901.8 943.4 901.9 943.2Z" fill="#DA903F"/>
<path d="M888.3 955.2C889.2 954.7 891.1 954 892 953.5C893.2 952.9 895.9 952.5 897.4 951.1C899.2 949.4 900.5 946 901.6 943.7C899 944.2 894.6 945 891.6 945.6C890.4 946.1 889.4 946.7 889.1 947.1C888.4 947.8 886.6 951.2 884.5 953.9C883.4 955.3 883.3 957.2 882.8 958.9C882.2 960.7 881.6 964.4 880.8 966.8C882 967.2 883.3 967.5 884.5 967.8C884.6 967.6 884.7 967.3 884.7 967C885.4 962.6 886.1 959 888.3 955.2Z" fill="#DA903F"/>
<path d="M918.3 938.2C911.5 938.8 904.3 941.4 898.2 943C892.9 944.4 888.3 943.7 884.5 939.5C882.9 937.7 881.3 933.4 883.2 930C880.3 930.4 881.3 936.4 882 938C882.6 939.4 882.9 941 883.9 942.2C885.3 944 885.5 946.1 885.5 946.1C885.7 949.7 883.9 951.2 884.5 954.1C888.2 949.6 889.6 947.3 895.3 945.6C899.2 944.5 909.8 941.7 910.4 941.6C912.5 940.8 916.1 939.7 918.3 938.2Z" fill="#FBC993"/>
<path d="M910.4 945.7C907.7 946.9 908.7 947.5 906.3 949.1C905.4 949.7 902 951.3 900.8 952.2C899.4 952.8 895.8 953.4 895.2 954.4C895.1 954.6 893.1 959 893.2 960.4C894.7 959 895.9 956.5 898.2 955C901.2 954.5 903.2 953.5 905.4 951.9C909.9 948.6 914.2 947.4 919.3 945C916.1 944.8 913.1 944.5 910.4 945.7Z" fill="#FBC993"/>
</g>
</g>
</g>
<defs>
<filter id="filter0_f_0_3" x="-381" y="-10" width="2207.07" height="995" filterUnits="userSpaceOnUse" color-interpolation-filters="sRGB">
<feFlood flood-opacity="0" result="BackgroundImageFix"/>
<feBlend mode="normal" in="SourceGraphic" in2="BackgroundImageFix" result="shape"/>
<feGaussianBlur stdDeviation="5" result="effect1_foregroundBlur_0_3"/>
</filter>
<radialGradient id="paint0_radial_0_3" cx="0" cy="0" r="1" gradientUnits="userSpaceOnUse" gradientTransform="translate(33 682.462) rotate(90) scale(5.53846 18)">
<stop/>
<stop offset="1" stop-opacity="0"/>
</radialGradient>
<radialGradient id="paint1_radial_0_3" cx="0" cy="0" r="1" gradientUnits="userSpaceOnUse" gradientTransform="translate(1250 682) rotate(90) scale(8 26)">
<stop/>
<stop offset="1" stop-opacity="0"/>
</radialGradient>
<radialGradient id="paint2_radial_0_3" cx="0" cy="0" r="1" gradientUnits="userSpaceOnUse" gradientTransform="translate(108.5 812) rotate(90) scale(6 18.5)">
<stop/>
<stop offset="1" stop-opacity="0"/>
</radialGradient>
<radialGradient id="paint3_radial_0_3" cx="0" cy="0" r="1" gradientUnits="userSpaceOnUse" gradientTransform="translate(1286 889) rotate(90) scale(8 26)">
<stop/>
<stop offset="1" stop-opacity="0"/>
</radialGradient>
<radialGradient id="paint4_radial_0_3" cx="0" cy="0" r="1" gradientUnits="userSpaceOnUse" gradientTransform="translate(1398 738.077) rotate(90) scale(4.92308 16)">
<stop/>
<stop offset="1" stop-opacity="0"/>
</radialGradient>
<radialGradient id="paint5_radial_0_3" cx="0" cy="0" r="1" gradientUnits="userSpaceOnUse" gradientTransform="translate(411 902.955) rotate(90) scale(10.6469 26)">
<stop/>
<stop offset="1" stop-opacity="0"/>
</radialGradient>
<linearGradient id="paint6_linear_0_3" x1="1282.57" y1="628.692" x2="1322.53" y2="628.692" gradientUnits="userSpaceOnUse">
<stop offset="0.0361552" stop-color="#9AAB72"/>
<stop offset="1" stop-color="#5B5945"/>
</linearGradient>
<linearGradient id="paint7_linear_0_3" x1="1332.31" y1="632.942" x2="1365.2" y2="632.942" gradientUnits="userSpaceOnUse">
<stop stop-color="#5B5945"/>
<stop offset="0.9638" stop-color="#9AAB72"/>
</linearGradient>
<linearGradient id="paint8_linear_0_3" x1="1278" y1="637.604" x2="1326.38" y2="637.604" gradientUnits="userSpaceOnUse">
<stop offset="0.0361552" stop-color="#9AAB72"/>
<stop offset="1" stop-color="#5B5945"/>
</linearGradient>
<linearGradient id="paint9_linear_0_3" x1="1340.41" y1="644.887" x2="1340.41" y2="590.711" gradientUnits="userSpaceOnUse">
<stop offset="0.00558659" stop-color="#424243"/>
<stop offset="0.9638" stop-color="#544F4A"/>
</linearGradient>
<linearGradient id="paint10_linear_0_3" x1="1313.26" y1="643.623" x2="1313.26" y2="593.119" gradientUnits="userSpaceOnUse">
<stop offset="0.00558659" stop-color="#424243"/>
<stop offset="0.9638" stop-color="#544F4A"/>
</linearGradient>
<linearGradient id="paint11_linear_0_3" x1="1335.08" y1="644.887" x2="1335.08" y2="583.918" gradientUnits="userSpaceOnUse">
<stop offset="0.00558659" stop-color="#424243"/>
<stop offset="0.9638" stop-color="#544F4A"/>
</linearGradient>
<linearGradient id="paint12_linear_0_3" x1="1319.81" y1="645.441" x2="1310.44" y2="580.299" gradientUnits="userSpaceOnUse">
<stop offset="0.00558659" stop-color="#424243"/>
<stop offset="0.9638" stop-color="#544F4A"/>
</linearGradient>
<linearGradient id="paint13_linear_0_3" x1="1323.6" y1="644.887" x2="1323.6" y2="580.107" gradientUnits="userSpaceOnUse">
<stop offset="0.00558659" stop-color="#424243"/>
<stop offset="0.9638" stop-color="#544F4A"/>
</linearGradient>
<linearGradient id="paint14_linear_0_3" x1="1327.82" y1="644.887" x2="1327.82" y2="577" gradientUnits="userSpaceOnUse">
<stop stop-color="#5B5943"/>
<stop offset="0.3212" stop-color="#58665A"/>
<stop offset="0.9694" stop-color="#518188"/>
</linearGradient>
<linearGradient id="paint15_linear_0_3" x1="1318.45" y1="645.637" x2="1309.08" y2="580.495" gradientUnits="userSpaceOnUse">
<stop stop-color="#5B5943"/>
<stop offset="0.3212" stop-color="#58665A"/>
<stop offset="0.9694" stop-color="#518188"/>
</linearGradient>
<linearGradient id="paint16_linear_0_3" x1="1337.46" y1="644.887" x2="1337.46" y2="583.918" gradientUnits="userSpaceOnUse">
<stop stop-color="#5B5943"/>
<stop offset="0.9583" stop-color="#547C68"/>
</linearGradient>
<linearGradient id="paint17_linear_0_3" x1="1344.9" y1="644.887" x2="1344.9" y2="593.119" gradientUnits="userSpaceOnUse">
<stop stop-color="#5B5945"/>
<stop offset="0.9806" stop-color="#6F8372"/>
</linearGradient>
<linearGradient id="paint18_linear_0_3" x1="1309.82" y1="644.887" x2="1309.82" y2="593.119" gradientUnits="userSpaceOnUse">
<stop stop-color="#5B5945"/>
<stop offset="0.9806" stop-color="#6F8372"/>
</linearGradient>
<linearGradient id="paint19_linear_0_3" x1="1355.26" y1="644.887" x2="1355.26" y2="625.355" gradientUnits="userSpaceOnUse">
<stop stop-color="#5B5945"/>
<stop offset="0.9806" stop-color="#6F8372"/>
</linearGradient>
<linearGradient id="paint20_linear_0_3" x1="1300.16" y1="644.988" x2="1300.16" y2="630.285" gradientUnits="userSpaceOnUse">
<stop stop-color="#5B5945"/>
<stop offset="0.9806" stop-color="#6F8372"/>
</linearGradient>
<linearGradient id="paint21_linear_0_3" x1="1332.31" y1="635.121" x2="1376.98" y2="635.121" gradientUnits="userSpaceOnUse">
<stop stop-color="#5B5945"/>
<stop offset="0.9638" stop-color="#9AAB72"/>
</linearGradient>
<radialGradient id="paint22_radial_0_3" cx="0" cy="0" r="1" gradientUnits="userSpaceOnUse" gradientTransform="translate(1327 641.702) rotate(90) scale(11.5907 51)">
<stop/>
<stop offset="1" stop-opacity="0"/>
</radialGradient>
<linearGradient id="paint23_linear_0_3" x1="127.636" y1="929.489" x2="155.844" y2="929.489" gradientUnits="userSpaceOnUse">
<stop offset="0.0361552" stop-color="#9AAB72"/>
<stop offset="1" stop-color="#5B5945"/>
</linearGradient>
<linearGradient id="paint24_linear_0_3" x1="162.748" y1="932.488" x2="185.968" y2="932.488" gradientUnits="userSpaceOnUse">
<stop stop-color="#5B5945"/>
<stop offset="0.9638" stop-color="#9AAB72"/>
</linearGradient>
<linearGradient id="paint25_linear_0_3" x1="124.412" y1="935.779" x2="158.565" y2="935.779" gradientUnits="userSpaceOnUse">
<stop offset="0.0361552" stop-color="#9AAB72"/>
<stop offset="1" stop-color="#5B5945"/>
</linearGradient>
<linearGradient id="paint26_linear_0_3" x1="168.469" y1="940.92" x2="168.469" y2="902.678" gradientUnits="userSpaceOnUse">
<stop offset="0.00558659" stop-color="#424243"/>
<stop offset="0.9638" stop-color="#544F4A"/>
</linearGradient>
<linearGradient id="paint27_linear_0_3" x1="149.303" y1="940.028" x2="149.303" y2="904.378" gradientUnits="userSpaceOnUse">
<stop offset="0.00558659" stop-color="#424243"/>
<stop offset="0.9638" stop-color="#544F4A"/>
</linearGradient>
<linearGradient id="paint28_linear_0_3" x1="164.7" y1="940.92" x2="164.7" y2="897.883" gradientUnits="userSpaceOnUse">
<stop offset="0.00558659" stop-color="#424243"/>
<stop offset="0.9638" stop-color="#544F4A"/>
</linearGradient>
<linearGradient id="paint29_linear_0_3" x1="153.927" y1="941.312" x2="147.313" y2="895.329" gradientUnits="userSpaceOnUse">
<stop offset="0.00558659" stop-color="#424243"/>
<stop offset="0.9638" stop-color="#544F4A"/>
</linearGradient>
<linearGradient id="paint30_linear_0_3" x1="156.599" y1="940.92" x2="156.599" y2="895.193" gradientUnits="userSpaceOnUse">
<stop offset="0.00558659" stop-color="#424243"/>
<stop offset="0.9638" stop-color="#544F4A"/>
</linearGradient>
<linearGradient id="paint31_linear_0_3" x1="159.577" y1="940.92" x2="159.577" y2="893" gradientUnits="userSpaceOnUse">
<stop stop-color="#5B5943"/>
<stop offset="0.3212" stop-color="#58665A"/>
<stop offset="0.9694" stop-color="#518188"/>
</linearGradient>
<linearGradient id="paint32_linear_0_3" x1="152.966" y1="941.45" x2="146.352" y2="895.467" gradientUnits="userSpaceOnUse">
<stop stop-color="#5B5943"/>
<stop offset="0.3212" stop-color="#58665A"/>
<stop offset="0.9694" stop-color="#518188"/>
</linearGradient>
<linearGradient id="paint33_linear_0_3" x1="166.381" y1="940.92" x2="166.381" y2="897.883" gradientUnits="userSpaceOnUse">
<stop stop-color="#5B5943"/>
<stop offset="0.9583" stop-color="#547C68"/>
</linearGradient>
<linearGradient id="paint34_linear_0_3" x1="171.636" y1="940.92" x2="171.636" y2="904.378" gradientUnits="userSpaceOnUse">
<stop stop-color="#5B5945"/>
<stop offset="0.9806" stop-color="#6F8372"/>
</linearGradient>
<linearGradient id="paint35_linear_0_3" x1="146.871" y1="940.92" x2="146.871" y2="904.378" gradientUnits="userSpaceOnUse">
<stop stop-color="#5B5945"/>
<stop offset="0.9806" stop-color="#6F8372"/>
</linearGradient>
<linearGradient id="paint36_linear_0_3" x1="178.947" y1="940.92" x2="178.947" y2="927.133" gradientUnits="userSpaceOnUse">
<stop stop-color="#5B5945"/>
<stop offset="0.9806" stop-color="#6F8372"/>
</linearGradient>
<linearGradient id="paint37_linear_0_3" x1="140.051" y1="940.991" x2="140.051" y2="930.613" gradientUnits="userSpaceOnUse">
<stop stop-color="#5B5945"/>
<stop offset="0.9806" stop-color="#6F8372"/>
</linearGradient>
<linearGradient id="paint38_linear_0_3" x1="162.748" y1="934.027" x2="194.283" y2="934.027" gradientUnits="userSpaceOnUse">
<stop stop-color="#5B5945"/>
<stop offset="0.9638" stop-color="#9AAB72"/>
</linearGradient>
<radialGradient id="paint39_radial_0_3" cx="0" cy="0" r="1" gradientUnits="userSpaceOnUse" gradientTransform="translate(159 939.915) rotate(90) scale(8.18165 36)">
<stop/>
<stop offset="1" stop-opacity="0"/>
</radialGradient>
<radialGradient id="paint40_radial_0_3" cx="0" cy="0" r="1" gradientUnits="userSpaceOnUse" gradientTransform="translate(893 961) rotate(90) scale(14 46)">
<stop/>
<stop offset="1" stop-opacity="0"/>
</radialGradient>
<clipPath id="clip0_0_3">
<rect width="1440" height="1024" fill="white"/>
</clipPath>
<clipPath id="clip1_0_3">
<rect width="21.7385" height="14.8846" fill="white" transform="translate(22.6152 670)"/>
</clipPath>
<clipPath id="clip2_0_3">
<rect width="31.4" height="21.5" fill="white" transform="translate(1235 664)"/>
</clipPath>
<clipPath id="clip3_0_3">
<rect width="17.8" height="22.1" fill="white" transform="translate(99 792)"/>
</clipPath>
<clipPath id="clip4_0_3">
<rect width="33.5" height="21.9" fill="white" transform="translate(1269 871)"/>
</clipPath>
<clipPath id="clip5_0_3">
<rect width="20.6154" height="13.4769" fill="white" transform="translate(1387.54 727)"/>
</clipPath>
<clipPath id="clip6_0_3">
<rect width="32.9" height="29.8113" fill="white" transform="translate(394 879)"/>
</clipPath>
<clipPath id="clip7_0_3">
<rect width="69.8824" height="48" fill="white" transform="translate(124.412 893)"/>
</clipPath>
<clipPath id="clip8_0_3">
<rect width="62.4" height="40.7" fill="white" transform="translate(861 928)"/>
</clipPath>
</defs>
</svg>
