<svg width="1440" height="1024" viewBox="0 0 1440 1024" fill="none" xmlns="http://www.w3.org/2000/svg">
<g clip-path="url(#clip0_0_566)">
<rect width="1440" height="1024" fill="#DA903F"/>
<path d="M1499 -150H-179V699.28H1499V-150Z" fill="#FFCE68"/>
<path d="M-288.821 184.925C-288.821 184.925 -86.3048 147.288 256.992 124.127C600.289 100.965 975.884 -3.26025 1258.67 -3.26025C1541.46 -3.26025 1764.96 -3.26025 1764.96 -3.26025L1764.69 205.625C1764.69 205.625 1349.16 153.078 1164.5 196.506C979.837 239.933 422.167 280.465 297.604 280.465C173.178 280.465 -232.945 323.892 -232.945 323.892L-288.821 184.925Z" fill="#FFC765"/>
<path d="M-341.154 365.004C-327.389 365.004 251.813 437.383 455.556 393.955C659.299 350.528 1442.24 205.77 1567.35 254.988C1692.32 304.205 1681.42 326.353 1681.42 326.353L1583.43 521.197L-371 578.087L-341.154 365.004Z" fill="#FFC765"/>
<path d="M525.665 498.915C510.126 500.227 493.906 500.508 481.775 496.665C456.968 488.885 436.25 469.387 413.897 469.387C391.543 469.387 369.871 461.794 351.334 458.982C332.797 456.17 306.49 460.951 279.23 467.981C251.969 475.011 224.845 442.953 197.585 437.891C170.324 432.923 150.56 445.484 127.525 431.61C104.354 417.831 53.5131 377.148 27.8882 377.148C-0.462662 377.148 -26.2238 345.277 -52.3939 344.34C-78.5639 343.402 -72.4303 395.24 -105.961 395.24C-139.491 395.24 -155.438 439.203 -177.656 446.983C-191.15 451.67 -206.007 458.888 -221 463.95L-221 717.193H977.371H1491.5L1499 342.184C1477.6 324.561 1458.25 311.062 1447.34 311.531C1433.03 312.094 1406.18 349.495 1378.37 366.181C1348.66 383.991 1359.02 342.277 1285.55 405.457C1263.2 424.674 1218.49 446.421 1187.41 452.045C1156.47 457.67 1108.49 453.733 1077.42 445.671C1046.34 437.61 1016.76 442.484 995.635 445.765C979.415 448.296 956.516 461.232 935.253 467.044C923.94 464.981 914.399 466.762 907.039 469.949C882.368 469.949 849.928 470.324 825.257 478.105C797.043 487.01 749.201 483.542 729.573 483.542C717.169 483.542 693.044 491.416 668.101 500.227C666.329 499.665 664.693 499.196 663.194 498.633C632.253 488.041 583.184 495.259 565.874 495.259C559.604 495.259 550.063 496.478 539.295 497.696L525.665 498.915Z" fill="#F5B249"/>
<path opacity="0.3" d="M797.906 544.799C813.026 546.204 828.828 546.579 840.679 542.27C864.79 533.653 885.087 512.111 906.882 512.111C928.677 512.111 949.791 503.775 967.908 500.59C986.025 497.406 1011.63 502.745 1038.2 510.519C1064.76 518.293 1091.19 482.794 1117.75 477.362C1144.31 471.836 1163.52 485.698 1186.13 470.431C1208.74 455.164 1258.19 438.398 1283.26 438.398C1310.91 438.398 1335.97 403.181 1361.45 402.151C1386.92 401.121 1381.06 458.349 1413.62 458.349C1446.31 458.349 1461.84 413.203 1483.64 421.82C1496.71 426.972 1511.29 435.027 1526 440.553V717.193H357.78H-151L-150.319 487.571C-129.477 468.089 -68.1785 421.633 -57.5533 422.007C-43.5227 422.569 -41.4794 418.823 -14.3717 437.274C14.6431 456.944 -14.3717 437.274 57.1436 507.053C78.9388 528.314 117.08 526.16 147.321 532.436C177.562 538.711 224.285 534.309 254.526 525.411C284.767 516.513 313.645 521.945 334.214 525.505C350.016 528.221 372.356 542.551 393.061 549.014C404.095 546.672 413.358 548.639 420.578 552.198C444.689 552.198 476.155 552.573 500.402 561.19C527.919 571.025 580.091 527.659 599.298 527.659C611.421 527.659 634.851 536.369 659.234 546.11C661.005 545.548 662.504 544.986 664.002 544.424C694.243 532.717 741.92 540.772 758.811 540.678C764.941 540.678 774.204 541.989 784.693 543.3L797.906 544.799Z" fill="#9C4226"/>
<path d="M-362.687 -11.222C-352.329 -19.9074 99.3126 43.0622 262.171 22.7961C425.029 2.53001 806.485 -6.15546 811.527 -17.7361C816.57 -29.3167 418.215 -9.05061 270.893 -20.6312C123.571 -32.2119 -333.522 -61.8872 -333.522 -61.8872L-362.687 -11.222Z" fill="#FFC765"/>
<path d="M1816.07 66.2236C1789.63 63.3284 1167.23 93.5828 930.093 125.43C692.961 157.276 368.199 184.925 509.661 184.925C651.122 184.925 947.538 138.168 1168.18 125.43C1388.82 112.546 1724.35 109.651 1724.35 109.651L1816.07 66.2236Z" fill="#FFC765"/>
<path d="M-314.579 239.933C-267.698 237.182 201.524 214.89 247.452 214.455C293.243 213.876 -288.958 280.465 -288.958 280.465L-314.579 239.933Z" fill="#FFCE68"/>
<path fill-rule="evenodd" clip-rule="evenodd" d="M610.168 248.704C582.502 199.776 532.077 241.756 516.677 269.115C507.683 253.191 493.1 252.178 475.656 252.178C459.984 252.178 465.844 278.669 448.809 272.589C410.377 258.982 392.251 277.076 357.908 277.076C332.423 277.076 305.575 277.8 279 278.09V282.722C300.396 284.893 327.244 287.354 334.876 288.368C413.375 299.948 505.639 290.684 587.136 290.684C622.024 290.684 655.141 289.526 689.62 289.526C694.663 289.526 721.783 291.407 722.874 288.368C732.413 263.18 680.626 277.076 676.81 275.918C676.81 275.918 670.268 238.86 610.168 248.704Z" fill="#FFCE68"/>
<path fill-rule="evenodd" clip-rule="evenodd" d="M1081.37 374.702C1081.09 374.702 1041.71 333.012 1041.71 353.133C1041.71 346.185 1024.95 356.463 1014.86 347.488C987.196 298.56 936.771 340.539 921.371 367.899C912.377 351.975 897.794 350.962 880.35 350.962C864.678 350.962 870.538 377.453 853.502 371.373C815.071 357.766 796.945 375.86 762.602 375.86C737.117 375.86 710.269 376.584 683.694 376.874V381.506C705.09 383.677 731.938 386.138 739.57 387.152C818.069 398.732 910.332 389.468 991.83 389.468C1026.72 389.468 1059.83 388.31 1094.31 388.31C1099.36 388.31 1126.48 390.191 1127.57 387.152C1136.83 361.964 1085.18 375.86 1081.37 374.702Z" fill="#FFC765"/>
<path d="M1048 224.406C1049.63 224.406 1051.27 224.116 1052.9 223.972C1055.22 223.682 1057.67 223.393 1059.99 222.958C1065.58 222.09 1071.03 221.945 1076.62 221.366C1079.34 221.076 1082.48 220.932 1085.2 221.511C1087.52 221.945 1089.84 222.814 1092.15 223.103C1094.33 223.393 1096.38 224.406 1098.29 225.274C1096.92 229.328 1100.06 232.947 1103.87 233.526C1104.15 233.526 1104.56 233.526 1104.83 233.526C1105.37 233.96 1105.78 234.394 1106.46 234.394C1106.6 234.539 1106.74 234.539 1106.87 234.539C1107.14 234.539 1107.28 234.684 1107.55 234.394C1107.69 234.394 1107.96 234.394 1108.1 234.249C1108.64 233.96 1108.92 233.091 1109.05 232.368C1109.6 232.802 1110.14 233.236 1110.69 233.381C1110.82 233.381 1110.96 233.236 1110.82 233.091C1110.42 232.802 1110.14 232.512 1109.73 232.223C1109.87 232.368 1110.01 232.368 1110.28 232.512C1110.82 232.947 1111.51 233.236 1112.19 233.381C1112.32 233.381 1112.46 233.091 1112.19 233.091C1111.37 232.802 1110.28 231.644 1109.73 230.92C1110.69 231.933 1112.19 233.236 1113.69 233.091C1113.82 233.091 1113.82 232.947 1113.69 232.802C1113.14 232.657 1112.6 232.223 1112.05 231.644C1112.19 231.789 1112.46 231.933 1112.6 232.078C1113.14 232.368 1113.69 232.368 1114.23 232.512C1114.37 232.512 1114.37 232.368 1114.37 232.368C1114.1 232.223 1113.82 231.933 1113.55 231.789C1114.23 231.933 1114.78 231.933 1115.32 231.933C1115.46 231.933 1115.46 231.789 1115.32 231.644C1113.82 230.92 1112.05 230.051 1111.23 228.314C1110.82 227.735 1110.69 227.012 1110.42 226.288C1110.42 225.853 1110.42 225.419 1110.42 224.985C1110.96 224.84 1111.51 224.551 1111.91 224.261C1114.78 222.814 1117.23 220.932 1119.96 219.05C1121.86 217.747 1123.77 215.141 1125.41 214.273C1126.63 213.549 1128.13 212.536 1129.63 212.536C1130.18 212.536 1130.59 212.246 1130.99 211.957C1130.18 212.825 1131.68 211.812 1131.95 211.667C1137.26 209.206 1142.71 207.035 1148.03 204.574C1150.07 203.706 1152.8 203.416 1154.44 201.968C1155.39 201.1 1159.34 199.652 1159.21 198.349C1159.21 198.494 1159.48 198.494 1159.48 198.349V198.205C1159.48 198.06 1159.34 197.915 1159.21 198.06C1158.52 199.073 1156.75 199.508 1155.8 200.231C1154.44 201.1 1152.94 201.679 1151.57 202.258C1149.26 203.271 1146.53 203.85 1143.94 204.285C1140.94 204.719 1137.81 205.443 1134.95 206.456C1133.18 207.035 1130.86 207.469 1129.09 208.483C1126.77 208.772 1123.91 210.22 1122 211.522C1119.82 213.115 1117.37 214.418 1115.19 216.155C1113.14 217.747 1110.28 219.629 1108.92 221.945C1107.55 221.655 1105.92 221.945 1104.83 222.09C1103.33 222.235 1101.15 222.524 1099.79 223.682C1097.61 222.958 1095.42 222.09 1093.52 221.221C1090.93 220.063 1088.2 219.195 1085.34 218.616C1082.48 218.037 1079.75 218.76 1076.89 218.905C1074.3 219.195 1071.71 219.918 1069.12 220.208C1066.53 220.497 1063.53 221.076 1060.95 221.8C1058.08 222.524 1054.95 222.814 1052.09 223.248C1050.45 223.537 1046.23 223.103 1045 224.695C1045.55 224.116 1047.18 224.406 1048 224.406Z" fill="#DA903F"/>
<path d="M1269.59 244.817C1270.68 244.817 1271.64 244.527 1272.73 244.383C1274.23 244.093 1275.73 243.803 1277.23 243.369C1280.77 242.501 1284.31 242.356 1287.72 241.777C1289.49 241.487 1291.4 241.343 1293.17 241.922C1294.67 242.356 1296.17 243.224 1297.53 243.514C1298.9 243.803 1300.12 244.817 1301.48 245.685C1300.67 249.739 1302.71 253.357 1305.03 253.937C1305.16 253.937 1305.44 253.937 1305.71 253.937C1305.98 254.371 1306.39 254.805 1306.66 254.805C1306.8 254.95 1306.8 254.95 1306.94 254.95C1307.07 254.95 1307.21 255.095 1307.34 254.805C1307.48 254.805 1307.62 254.805 1307.62 254.66C1307.89 254.371 1308.16 253.502 1308.3 252.778C1308.71 253.213 1308.98 253.647 1309.39 253.792C1309.53 253.792 1309.53 253.647 1309.53 253.502C1309.25 253.213 1309.12 252.923 1308.84 252.634C1308.98 252.778 1308.98 252.778 1309.12 252.923C1309.53 253.357 1309.93 253.647 1310.34 253.792C1310.48 253.792 1310.48 253.502 1310.34 253.502C1309.8 253.213 1309.12 252.055 1308.71 251.331C1309.39 252.344 1310.34 253.647 1311.16 253.502C1311.3 253.502 1311.3 253.357 1311.16 253.213C1310.75 253.068 1310.48 252.634 1310.07 252.055C1310.21 252.199 1310.34 252.344 1310.48 252.489C1310.75 252.778 1311.16 252.778 1311.57 252.923C1311.71 252.923 1311.71 252.778 1311.57 252.778C1311.43 252.634 1311.16 252.344 1311.02 252.199C1311.43 252.344 1311.84 252.344 1312.11 252.344C1312.25 252.344 1312.25 252.199 1312.11 252.055C1311.16 251.331 1310.07 250.462 1309.53 248.725C1309.25 248.146 1309.25 247.422 1308.98 246.699C1308.98 246.264 1308.98 245.83 1308.98 245.396C1309.25 245.251 1309.66 244.962 1309.93 244.672C1311.84 243.224 1313.34 241.343 1315.11 239.461C1316.34 238.158 1317.57 235.552 1318.66 234.684C1319.47 233.96 1320.43 232.947 1321.25 232.947C1321.65 232.947 1321.93 232.657 1322.2 232.368C1321.65 233.236 1322.61 232.223 1322.88 232.078C1326.29 229.617 1329.7 227.446 1333.1 224.985C1334.33 224.116 1336.1 223.827 1337.19 222.379C1337.74 221.511 1340.33 220.063 1340.19 218.76C1340.19 218.905 1340.33 218.905 1340.33 218.76V218.616C1340.33 218.471 1340.19 218.326 1340.19 218.471C1339.78 219.484 1338.69 219.918 1338.01 220.642C1337.19 221.511 1336.24 222.09 1335.28 222.669C1333.78 223.682 1332.01 224.261 1330.51 224.695C1328.6 225.13 1326.56 225.853 1324.79 226.867C1323.7 227.446 1322.2 227.88 1321.11 228.893C1319.61 229.183 1317.84 230.631 1316.61 231.933C1315.25 233.526 1313.61 234.828 1312.25 236.566C1310.89 238.158 1309.12 240.04 1308.3 242.356C1307.48 242.066 1306.39 242.356 1305.71 242.501C1304.76 242.645 1303.39 242.935 1302.57 244.093C1301.21 243.369 1299.85 242.501 1298.62 241.632C1296.99 240.474 1295.22 239.605 1293.44 239.026C1291.67 238.447 1289.9 239.171 1288.13 239.316C1286.49 239.606 1284.86 240.329 1283.22 240.619C1281.59 240.908 1279.68 241.487 1278.04 242.211C1276.14 242.935 1274.23 243.224 1272.46 243.659C1271.37 243.948 1268.78 243.514 1267.96 245.106C1267.96 244.527 1269.05 244.817 1269.59 244.817Z" fill="#DA903F"/>
<path d="M1170.52 319.512C1171.2 319.512 1171.88 319.222 1172.42 319.078C1173.38 318.788 1174.33 318.499 1175.29 318.064C1177.47 317.196 1179.65 317.051 1181.83 316.472C1182.92 316.182 1184.14 316.038 1185.24 316.617C1186.19 317.051 1187.14 317.92 1187.96 318.209C1188.78 318.499 1189.6 319.512 1190.41 320.38C1189.87 324.434 1191.1 328.053 1192.59 328.632C1192.73 328.632 1192.87 328.632 1193 328.632C1193.28 329.066 1193.41 329.5 1193.68 329.5C1193.68 329.645 1193.82 329.645 1193.82 329.645C1193.96 329.645 1193.96 329.79 1194.09 329.5C1194.23 329.5 1194.23 329.5 1194.23 329.355C1194.5 329.066 1194.64 328.197 1194.64 327.474C1194.91 327.908 1195.05 328.342 1195.32 328.487C1195.46 328.487 1195.46 328.342 1195.32 328.197C1195.18 327.908 1195.05 327.618 1194.91 327.329C1194.91 327.474 1195.05 327.474 1195.05 327.618C1195.32 328.053 1195.46 328.342 1195.87 328.487C1196 328.487 1196 328.197 1195.87 328.197C1195.59 327.908 1195.18 326.75 1194.91 326.026C1195.32 327.039 1195.87 328.342 1196.41 328.197C1196.41 328.197 1196.41 328.053 1196.41 327.908C1196.14 327.763 1196 327.329 1195.73 326.75C1195.87 326.894 1195.87 327.039 1196 327.184C1196.27 327.474 1196.41 327.474 1196.68 327.618V327.474C1196.55 327.329 1196.41 327.039 1196.41 326.894C1196.68 327.039 1196.96 327.039 1197.09 327.039C1197.09 327.039 1197.09 326.894 1197.09 326.75C1196.41 326.026 1195.87 325.157 1195.46 323.42C1195.32 322.841 1195.32 322.117 1195.18 321.394C1195.18 320.959 1195.18 320.525 1195.18 320.091C1195.46 319.946 1195.59 319.657 1195.87 319.367C1196.96 317.919 1197.91 316.038 1199 314.156C1199.82 312.853 1200.5 310.247 1201.18 309.379C1201.59 308.655 1202.27 307.642 1202.82 307.642C1203.09 307.642 1203.22 307.352 1203.36 307.063C1203.09 307.931 1203.63 306.918 1203.77 306.773C1205.81 304.312 1207.99 302.141 1210.17 299.68C1210.99 298.811 1212.08 298.522 1212.76 297.074C1213.17 296.206 1214.67 294.758 1214.67 293.455C1214.67 293.6 1214.81 293.6 1214.81 293.455V293.311C1214.81 293.166 1214.81 293.021 1214.67 293.166C1214.4 294.179 1213.72 294.613 1213.31 295.337C1212.76 296.206 1212.22 296.785 1211.67 297.364C1210.72 298.377 1209.63 298.956 1208.68 299.391C1207.45 299.825 1206.22 300.549 1205.13 301.562C1204.45 302.141 1203.5 302.575 1202.82 303.588C1201.86 303.878 1200.77 305.326 1199.95 306.628C1199 308.221 1198.05 309.524 1197.23 311.261C1196.41 312.853 1195.32 314.735 1194.78 317.051C1194.23 316.761 1193.55 317.051 1193.14 317.196C1192.59 317.34 1191.64 317.63 1191.1 318.788C1190.28 318.064 1189.32 317.196 1188.64 316.327C1187.55 315.169 1186.6 314.301 1185.37 313.722C1184.28 313.142 1183.19 313.866 1181.96 314.011C1180.87 314.301 1179.92 315.024 1178.97 315.314C1177.88 315.603 1176.79 316.182 1175.7 316.906C1174.61 317.63 1173.38 317.919 1172.15 318.354C1171.47 318.643 1169.84 318.209 1169.29 319.801C1169.56 319.367 1170.24 319.512 1170.52 319.512Z" fill="#DA903F"/>
<ellipse opacity="0.25" cx="33" cy="532.462" rx="18" ry="5.53846" fill="url(#paint0_radial_0_566)"/>
<g clip-path="url(#clip1_0_566)">
<path d="M40.7541 533.015C42.4156 532.6 44.3541 532.115 44.2156 530.039C44.0771 528.377 42.2771 526.646 40.6156 525.4C37.6387 522.285 32.931 520.139 29.0541 520.692C24.3464 521.385 21.4387 526.508 24.3464 530.592C28.0156 535.923 35.4925 534.262 40.7541 533.015Z" fill="#B97D3D"/>
<path d="M35.2847 526.231C34.1078 523.877 28.9155 521.8 26.5616 523.946C25.9385 524.5 25.3155 525.054 25.177 525.815C24.8308 527.685 26.2847 529.139 27.877 529.831C29.6078 530.662 31.8232 531.492 33.6924 530.662C35.4232 529.831 36.1155 527.962 35.2847 526.231Z" fill="#E6A257"/>
<path d="M36.4616 521.938C35.977 521.731 35.1462 522.215 35.5616 522.838C36.3924 524.015 38.4693 526.023 38.7462 527.408C38.9539 528.308 40.3385 531.354 33.1385 531.423C28.9155 531.492 25.177 529.831 23.3078 525.677C22.6155 526.577 22.7539 529.069 23.0308 529.692C24.3462 532.738 27.0462 533.638 30.1616 533.985C33.9693 534.4 38.5385 534.469 42.2078 533.154C48.577 530.938 39.1616 523.185 36.4616 521.938Z" fill="#DA903F"/>
<path d="M36.9462 521.869C33.4155 519.169 27.1847 519.308 24.6924 523.046C28.1539 521.454 31.8924 520.969 35.0078 523.115C35.7693 523.6 38.0539 525.123 38.4001 527.685C38.677 529.692 37.777 530.662 37.8462 530.592C41.5155 528.515 39.6462 524.015 36.9462 521.869Z" fill="#FBC993"/>
<path d="M42.6232 526.992C42.2078 533.154 33.6924 533.431 32.0309 533.292C29.1232 533.154 24.9694 532.254 22.8232 527.823C21.5078 532.462 26.7001 535.231 33.6924 534.885C35.5617 534.816 40.3386 534.123 42.6232 533.154C45.8078 531.7 43.9386 528.1 42.6232 526.992Z" fill="#B77A38"/>
</g>
<ellipse opacity="0.25" cx="1250" cy="532" rx="26" ry="8" fill="url(#paint1_radial_0_566)"/>
<g clip-path="url(#clip2_0_566)">
<path d="M1261.2 532.8C1263.6 532.2 1266.4 531.5 1266.2 528.5C1266 526.1 1263.4 523.6 1261 521.8C1256.7 517.3 1249.9 514.2 1244.3 515C1237.5 516 1233.3 523.4 1237.5 529.3C1242.8 537 1253.6 534.6 1261.2 532.8Z" fill="#B97D3D"/>
<path d="M1253.3 523C1251.6 519.6 1244.1 516.6 1240.7 519.7C1239.8 520.5 1238.9 521.3 1238.7 522.4C1238.2 525.1 1240.3 527.2 1242.6 528.2C1245.1 529.4 1248.3 530.6 1251 529.4C1253.5 528.2 1254.5 525.5 1253.3 523Z" fill="#E6A257"/>
<path d="M1255 516.8C1254.3 516.5 1253.1 517.2 1253.7 518.1C1254.9 519.8 1257.9 522.7 1258.3 524.7C1258.6 526 1260.6 530.4 1250.2 530.5C1244.1 530.6 1238.7 528.2 1236 522.2C1235 523.5 1235.2 527.1 1235.6 528C1237.5 532.4 1241.4 533.7 1245.9 534.2C1251.4 534.8 1258 534.9 1263.3 533C1272.5 529.8 1258.9 518.6 1255 516.8Z" fill="#DA903F"/>
<path d="M1255.7 516.7C1250.6 512.8 1241.6 513 1238 518.4C1243 516.1 1248.4 515.4 1252.9 518.5C1254 519.2 1257.3 521.4 1257.8 525.1C1258.2 528 1256.9 529.4 1257 529.3C1262.3 526.3 1259.6 519.8 1255.7 516.7Z" fill="#FBC993"/>
<path d="M1263.9 524.1C1263.3 533 1251 533.4 1248.6 533.2C1244.4 533 1238.4 531.7 1235.3 525.3C1233.4 532 1240.9 536 1251 535.5C1253.7 535.4 1260.6 534.4 1263.9 533C1268.5 530.9 1265.8 525.7 1263.9 524.1Z" fill="#B77A38"/>
</g>
<ellipse opacity="0.25" cx="108.5" cy="662" rx="18.5" ry="6" fill="url(#paint2_radial_0_566)"/>
<g clip-path="url(#clip3_0_566)">
<path d="M106.9 642.7C109.9 642.8 113.1 647.6 114.3 650.7C115.1 652.7 116.4 656.5 116.8 658.8C117.4 663 111.1 663.5 107.8 664.1C107.3 664.2 106.5 664.2 105.6 664.1C105.7 660.3 108.9 657.6 108.8 654.6C108.7 651.2 108.7 645.7 106.9 642.7Z" fill="#DA903F"/>
<path d="M98.9999 658.1C99.3999 650.9 104 642.9 106.5 642.6C106.6 642.6 106.8 642.6 107 642.6C108.8 645.6 108.8 651.1 108.8 654.4C108.9 657.4 105.7 660.1 105.6 663.9C102.8 663.6 98.7999 662.1 98.9999 658.1Z" fill="#B77A38"/>
<path d="M102.6 646C103.1 644.9 103.6 643.8 104.8 642.9C105.6 642.3 106.4 641.6 107.8 642.4C109.4 643.3 112 645.7 112.5 647.3C111.8 647.4 110.9 645.5 108.9 644.2C110.5 647.5 109.5 653.5 108.5 656.1C108.4 654.3 108.6 651.3 108.2 649.4C107.9 646.9 107.3 646 106.7 644.4C106 643.2 105.4 644.7 104.7 645.1C104.1 645.4 103.5 646 103 646.6C102.7 647.2 101.9 649.6 101 649.7C101.1 649.5 102.3 646.7 102.6 646Z" fill="#FBC993"/>
</g>
<ellipse opacity="0.25" cx="1400.5" cy="928" rx="18.5" ry="6" fill="url(#paint3_radial_0_566)"/>
<g clip-path="url(#clip4_0_566)">
<path d="M1398.9 908.7C1401.9 908.8 1405.1 913.6 1406.3 916.7C1407.1 918.7 1408.4 922.5 1408.8 924.8C1409.4 929 1403.1 929.5 1399.8 930.1C1399.3 930.2 1398.5 930.2 1397.6 930.1C1397.7 926.3 1400.9 923.6 1400.8 920.6C1400.7 917.2 1400.7 911.7 1398.9 908.7Z" fill="#DA903F"/>
<path d="M1391 924.1C1391.4 916.9 1396 908.9 1398.5 908.6C1398.6 908.6 1398.8 908.6 1399 908.6C1400.8 911.6 1400.8 917.1 1400.8 920.4C1400.9 923.4 1397.7 926.1 1397.6 929.9C1394.8 929.6 1390.8 928.1 1391 924.1Z" fill="#B77A38"/>
<path d="M1394.6 912C1395.1 910.9 1395.6 909.8 1396.8 908.9C1397.6 908.3 1398.4 907.6 1399.8 908.4C1401.4 909.3 1404 911.7 1404.5 913.3C1403.8 913.4 1402.9 911.5 1400.9 910.2C1402.5 913.5 1401.5 919.5 1400.5 922.1C1400.4 920.3 1400.6 917.3 1400.2 915.4C1399.9 912.9 1399.3 912 1398.7 910.4C1398 909.2 1397.4 910.7 1396.7 911.1C1396.1 911.4 1395.5 912 1395 912.6C1394.7 913.2 1393.9 915.6 1393 915.7C1393.1 915.5 1394.3 912.7 1394.6 912Z" fill="#FBC993"/>
</g>
<ellipse opacity="0.25" cx="1344" cy="756" rx="26" ry="8" fill="url(#paint4_radial_0_566)"/>
<g clip-path="url(#clip5_0_566)">
<path d="M1349.2 759.4C1352.3 758.8 1356.5 758 1359 756C1359.3 755.8 1359.5 755.6 1359.7 755.3C1359.2 752.4 1357.7 749.3 1357.2 748.8C1355.4 747 1352.6 746.7 1350.2 746.5C1347.7 746.3 1344.9 746.5 1342.7 748C1340.4 749.7 1339.6 752.5 1339.1 755.1C1338.9 756.2 1338.3 758 1338.4 759.4C1341.9 760.1 1345.6 760.1 1349.2 759.4Z" fill="#B77A38"/>
<path d="M1342.3 745.3C1343.8 744.3 1345.6 743.8 1347.4 743.4C1348.3 743.2 1349.2 743.1 1350.1 743C1350.7 742.9 1354 742.9 1355.1 740.5C1354.5 740 1351.1 737.9 1346.3 738.4C1341 738.9 1334.2 742.1 1332.1 743.5C1331.2 744.1 1330.5 744.8 1329.9 745.5C1331.6 746.1 1333.2 747.3 1335.1 747.6C1338.2 748.3 1339.9 746.9 1342.3 745.3Z" fill="#B97D3D"/>
<path d="M1327.1 753.7C1327.4 754.6 1329.3 755.6 1330 756.2C1332.6 757.9 1335.4 759 1338.4 759.5C1338.3 758.1 1338.8 756.3 1339.1 755.2C1339.6 752.6 1340.5 749.7 1342.7 748.1C1344.8 746.6 1347.6 746.4 1350.2 746.6C1352.6 746.8 1355.4 747 1357.2 748.9C1357.7 749.4 1359.2 752.5 1359.7 755.4C1360.9 753.9 1360.5 751.9 1360 750C1359.1 746.5 1357.9 743 1355.1 740.5C1354 743 1350.7 742.9 1350.1 743C1349.2 743.1 1348.3 743.3 1347.4 743.4C1345.6 743.7 1343.9 744.2 1342.3 745.3C1339.9 746.9 1338.2 748.3 1335.1 747.7C1333.2 747.3 1331.6 746.2 1329.9 745.5C1328.8 746.8 1328.1 748.4 1327.6 750.3C1327.4 751.2 1326.8 752.8 1327.1 753.7Z" fill="#DA903F"/>
<path d="M1347.4 738C1345 738.1 1342.6 738.7 1340.4 739.6C1338.9 740.1 1338 740.5 1336.6 741.1C1335.8 741.4 1333.5 742.2 1332.8 742.6C1332.2 742.9 1330.8 744 1329.9 745.5C1333.9 743.9 1337.8 741.6 1342 740.5C1344.6 739.9 1346.8 739.7 1349.4 740.5C1351 741 1353.4 740.9 1354.8 740.1C1352.3 738.4 1349.5 738 1347.4 738Z" fill="#FBC993"/>
</g>
<ellipse opacity="0.25" cx="1398" cy="588.077" rx="16" ry="4.92308" fill="url(#paint5_radial_0_566)"/>
<g clip-path="url(#clip6_0_566)">
<path d="M1401.2 590.169C1403.11 589.8 1405.69 589.308 1407.23 588.077C1407.42 587.954 1407.54 587.831 1407.66 587.646C1407.35 585.862 1406.43 583.954 1406.12 583.646C1405.02 582.539 1403.29 582.354 1401.82 582.231C1400.28 582.108 1398.55 582.231 1397.2 583.154C1395.78 584.2 1395.29 585.923 1394.98 587.523C1394.86 588.2 1394.49 589.308 1394.55 590.169C1396.71 590.6 1398.98 590.6 1401.2 590.169Z" fill="#B77A38"/>
<path d="M1396.95 581.492C1397.88 580.877 1398.98 580.569 1400.09 580.323C1400.65 580.2 1401.2 580.139 1401.75 580.077C1402.12 580.015 1404.15 580.015 1404.83 578.539C1404.46 578.231 1402.37 576.939 1399.42 577.246C1396.15 577.554 1391.97 579.523 1390.68 580.385C1390.12 580.754 1389.69 581.185 1389.32 581.615C1390.37 581.985 1391.35 582.723 1392.52 582.908C1394.43 583.339 1395.48 582.477 1396.95 581.492Z" fill="#B97D3D"/>
<path d="M1387.6 586.662C1387.78 587.215 1388.95 587.831 1389.38 588.2C1390.98 589.246 1392.71 589.923 1394.55 590.231C1394.49 589.369 1394.8 588.262 1394.98 587.585C1395.29 585.985 1395.85 584.2 1397.2 583.215C1398.49 582.292 1400.22 582.169 1401.82 582.292C1403.29 582.415 1405.02 582.539 1406.12 583.708C1406.43 584.015 1407.35 585.923 1407.66 587.708C1408.4 586.785 1408.15 585.554 1407.85 584.385C1407.29 582.231 1406.55 580.077 1404.83 578.539C1404.15 580.077 1402.12 580.015 1401.75 580.077C1401.2 580.139 1400.65 580.262 1400.09 580.323C1398.98 580.508 1397.94 580.815 1396.95 581.492C1395.48 582.477 1394.43 583.339 1392.52 582.969C1391.35 582.723 1390.37 582.046 1389.32 581.615C1388.65 582.415 1388.22 583.4 1387.91 584.569C1387.78 585.123 1387.42 586.108 1387.6 586.662Z" fill="#DA903F"/>
<path d="M1400.09 577C1398.62 577.062 1397.14 577.431 1395.78 577.985C1394.86 578.292 1394.31 578.538 1393.45 578.908C1392.95 579.092 1391.54 579.585 1391.11 579.831C1390.74 580.015 1389.88 580.692 1389.32 581.615C1391.78 580.631 1394.18 579.215 1396.77 578.538C1398.37 578.169 1399.72 578.046 1401.32 578.538C1402.31 578.846 1403.78 578.785 1404.65 578.292C1403.11 577.246 1401.38 577 1400.09 577Z" fill="#FBC993"/>
</g>
<ellipse opacity="0.25" cx="411" cy="752.955" rx="26" ry="10.6469" fill="url(#paint6_radial_0_566)"/>
<g clip-path="url(#clip7_0_566)">
<path d="M404.8 741.244C406.9 743.107 408.8 745.103 411.4 745.103C413.9 745.103 416.7 744.305 419.1 743.506C420.9 742.841 423.1 742.309 424.6 740.845C419.7 729.266 406.5 728.468 403.9 729.665C402 730.597 399.8 732.46 398 734.856C398.3 735.122 398.5 735.388 398.7 735.654C400.7 737.517 402.7 739.381 404.8 741.244Z" fill="#B97D3D"/>
<path d="M424.6 740.711C423.1 742.175 420.9 742.841 419.1 743.373C416.7 744.172 413.9 745.103 411.4 744.97C408.8 744.97 406.9 742.974 404.8 741.111C402.7 739.381 400.7 737.517 398.7 735.654C398.5 735.388 398.3 735.122 398 734.856C397 736.187 396.3 738.05 395.7 740.179C395.8 740.179 399.7 744.039 401.3 745.236C403.6 746.833 405.3 748.43 407.1 750.826C408 752.024 408.6 752.822 409.8 752.822C410.5 752.822 411.2 752.423 412 752.423C413.1 752.29 414 752.29 415 752.822C416.5 753.754 417.3 755.484 417.5 757.613C421.3 756.682 425.4 755.218 426.7 754.02C427.4 749.628 425.5 742.708 424.6 740.711Z" fill="#DA903F"/>
<path d="M415.1 752.955C414.1 752.29 413.2 752.423 412.1 752.556C411.4 752.556 410.7 752.955 410 752.955C408.7 752.955 408.1 752.157 407.3 750.959C405.5 748.564 403.7 746.967 401.5 745.37C399.9 744.172 396 740.312 395.9 740.312C395 743.506 394.5 747.366 394.1 750.294C397.8 755.883 406 758.944 411.4 758.944C412.9 758.944 415.2 758.545 417.7 757.88C417.4 755.75 416.6 753.887 415.1 752.955Z" fill="#B77A38"/>
<path d="M423.3 738.183C423.2 739.78 416.9 743.773 410.9 743.906C408.9 744.039 407.2 742.176 405.6 740.845C404.7 740.046 403.9 739.381 403 738.582C401.8 736.985 400.8 735.521 401.4 733.791C401.4 733.791 401.4 733.658 401.5 733.658C401.8 732.993 402.2 732.327 402.9 731.662C404.5 730.065 407.5 729.399 409.5 729.532C404.4 727.403 399 732.859 397.8 734.989C398.6 736.453 401.2 738.981 402.3 739.913C402.8 740.445 403.4 740.978 404 741.377C404.3 741.643 404.6 742.042 405 742.309C405.2 742.442 405.3 742.708 405.5 742.841C406.9 744.438 408.1 745.636 408.3 748.031C408.4 749.761 408.3 751.758 408.4 752.423C408.8 754.686 409.6 754.952 411 753.089C411.5 752.29 411.8 749.628 411.8 749.628C411.9 748.697 411.6 745.503 413.5 745.769C416 746.168 420.8 744.837 421.6 744.172C422.5 743.906 424.2 742.176 425.1 741.776C424.6 740.712 423.9 739.115 423.3 738.183Z" fill="#FBC993"/>
</g>
<ellipse opacity="0.25" cx="41" cy="936.955" rx="26" ry="10.6469" fill="url(#paint7_radial_0_566)"/>
<g clip-path="url(#clip8_0_566)">
<path d="M34.8 925.244C36.9 927.107 38.8 929.103 41.4 929.103C43.9 929.103 46.7 928.305 49.1 927.506C50.9 926.841 53.1 926.309 54.6 924.845C49.7 913.266 36.5 912.468 33.9 913.665C32 914.597 29.8 916.46 28 918.856C28.3 919.122 28.5 919.388 28.7 919.654C30.7 921.517 32.7 923.381 34.8 925.244Z" fill="#B97D3D"/>
<path d="M54.6002 924.712C53.1002 926.176 50.9002 926.841 49.1002 927.373C46.7002 928.172 43.9002 929.103 41.4002 928.97C38.8002 928.97 36.9002 926.974 34.8002 925.111C32.7002 923.381 30.7002 921.518 28.7002 919.654C28.5002 919.388 28.3002 919.122 28.0002 918.856C27.0002 920.187 26.3002 922.05 25.7002 924.179C25.8002 924.179 29.7002 928.039 31.3002 929.237C33.6002 930.834 35.3002 932.431 37.1002 934.826C38.0002 936.024 38.6002 936.822 39.8002 936.822C40.5002 936.822 41.2002 936.423 42.0002 936.423C43.1002 936.29 44.0002 936.29 45.0002 936.822C46.5002 937.754 47.3002 939.484 47.5002 941.614C51.3002 940.682 55.4002 939.218 56.7002 938.02C57.4002 933.628 55.5002 926.708 54.6002 924.712Z" fill="#DA903F"/>
<path d="M45.1001 936.956C44.1001 936.29 43.2001 936.423 42.1001 936.556C41.4001 936.556 40.7001 936.956 40.0001 936.956C38.7001 936.956 38.1001 936.157 37.3001 934.959C35.5001 932.564 33.7001 930.967 31.5001 929.37C29.9001 928.172 26.0001 924.312 25.9001 924.312C25.0001 927.506 24.5001 931.366 24.1001 934.294C27.8001 939.883 36.0001 942.944 41.4001 942.944C42.9001 942.944 45.2001 942.545 47.7001 941.88C47.4001 939.75 46.6001 937.887 45.1001 936.956Z" fill="#B77A38"/>
<path d="M53.3 922.183C53.2 923.78 46.9 927.773 40.9 927.906C38.9 928.039 37.2 926.176 35.6 924.845C34.7 924.046 33.9 923.381 33 922.582C31.8 920.985 30.8 919.521 31.4 917.791C31.4 917.791 31.4 917.658 31.5 917.658C31.8 916.993 32.2 916.327 32.9 915.662C34.5 914.065 37.5 913.399 39.5 913.532C34.4 911.403 29 916.859 27.8 918.989C28.6 920.453 31.2 922.981 32.3 923.913C32.8 924.445 33.4 924.978 34 925.377C34.3 925.643 34.6 926.042 35 926.309C35.2 926.442 35.3 926.708 35.5 926.841C36.9 928.438 38.1 929.636 38.3 932.031C38.4 933.761 38.3 935.758 38.4 936.423C38.8 938.686 39.6 938.952 41 937.089C41.5 936.29 41.8 933.628 41.8 933.628C41.9 932.697 41.6 929.503 43.5 929.769C46 930.168 50.8001 928.837 51.6 928.172C52.5 927.906 54.2001 926.176 55.1 925.776C54.6 924.712 53.9 923.115 53.3 922.183Z" fill="#FBC993"/>
</g>
<g clip-path="url(#clip9_0_566)">
<path fill-rule="evenodd" clip-rule="evenodd" d="M205.826 838.225C205.826 838.225 194.679 818.674 177.614 818.061C177.614 818.061 196.381 838.959 204.002 840.918L205.826 838.225Z" fill="url(#paint8_linear_0_566)"/>
<path fill-rule="evenodd" clip-rule="evenodd" d="M212.758 838.918C212.758 838.918 225.77 821.653 235.984 827.122C235.984 827.122 226.945 834.592 217.906 838.918H212.758Z" fill="url(#paint9_linear_0_566)"/>
<path fill-rule="evenodd" clip-rule="evenodd" d="M174.412 830.633C174.412 830.633 197.071 835.041 206.475 840.061L208.542 840.959C208.583 840.918 191.477 841.939 174.412 830.633Z" fill="url(#paint10_linear_0_566)"/>
<path fill-rule="evenodd" clip-rule="evenodd" d="M211.177 840.918C211.177 840.918 215.23 809.122 225.769 802.673C225.769 802.673 223.905 826.551 212.758 840.918H211.177Z" fill="url(#paint11_linear_0_566)"/>
<path fill-rule="evenodd" clip-rule="evenodd" d="M206.475 840.02C206.475 840.02 187.585 823.694 190.747 804.388C190.747 804.388 205.259 826.429 208.218 840.02H206.475Z" fill="url(#paint12_linear_0_566)"/>
<path fill-rule="evenodd" clip-rule="evenodd" d="M214.866 797.898C214.866 797.898 217.136 825.449 211.501 840.918C211.501 840.918 223.256 812.061 214.866 797.898Z" fill="url(#paint13_linear_0_566)"/>
<path fill-rule="evenodd" clip-rule="evenodd" d="M197.638 795.286C197.638 795.286 196.26 823 208.542 840.674C208.501 840.633 187.058 813.98 197.638 795.286Z" fill="url(#paint14_linear_0_566)"/>
<path fill-rule="evenodd" clip-rule="evenodd" d="M207.448 840.673C207.448 840.673 199.624 813.367 202.3 795.163C202.3 795.163 213.487 816.51 211.177 840.877L207.448 840.673Z" fill="url(#paint15_linear_0_566)"/>
<path fill-rule="evenodd" clip-rule="evenodd" d="M207.448 840.673C207.448 840.673 202.138 804.469 209.312 793C209.312 793 217.582 824.551 211.177 840.918L207.448 840.673Z" fill="url(#paint16_linear_0_566)"/>
<path fill-rule="evenodd" clip-rule="evenodd" d="M208.501 840.633C208.501 840.633 190.139 809.531 197.598 795.245C197.598 795.245 183.329 817.408 207.245 840.796L208.501 840.633Z" fill="url(#paint17_linear_0_566)"/>
<path fill-rule="evenodd" clip-rule="evenodd" d="M211.501 840.918C211.501 840.918 219.689 812.918 214.866 797.898C214.866 797.898 218.919 802.633 220.986 811.449C223.054 820.306 212.758 840.918 212.758 840.918H211.501Z" fill="url(#paint18_linear_0_566)"/>
<path fill-rule="evenodd" clip-rule="evenodd" d="M211.501 840.918C211.501 840.918 226.337 822.714 231.769 804.388C231.769 804.388 230.877 830.265 213.609 840.918H211.501Z" fill="url(#paint19_linear_0_566)"/>
<path fill-rule="evenodd" clip-rule="evenodd" d="M207.326 840.918C207.326 840.918 188.599 821.408 187.058 804.388C187.058 804.388 181.181 827.775 205.705 840.918H207.326Z" fill="url(#paint20_linear_0_566)"/>
<path fill-rule="evenodd" clip-rule="evenodd" d="M213.609 840.918C213.609 840.918 236.673 835.245 244.294 827.122C244.294 827.122 235.7 838.959 213.609 840.918Z" fill="url(#paint21_linear_0_566)"/>
<path fill-rule="evenodd" clip-rule="evenodd" d="M205.705 840.918C205.705 840.918 192.693 840.633 174.412 830.592C174.412 830.633 186.491 841.98 205.705 840.918Z" fill="url(#paint22_linear_0_566)"/>
<path fill-rule="evenodd" clip-rule="evenodd" d="M244.294 827.122C244.294 827.122 225.445 834.143 212.758 840.918C212.758 840.918 231.769 839.204 244.294 827.122Z" fill="url(#paint23_linear_0_566)"/>
<path fill-rule="evenodd" clip-rule="evenodd" d="M207.326 798.265L210.731 799.204L209.312 793C209.312 793 207.65 795.041 207.326 798.265Z" fill="#B57C15"/>
<path fill-rule="evenodd" clip-rule="evenodd" d="M194.031 805L195.936 801.408L197.598 795.286C197.638 795.286 194.679 799.531 194.031 805Z" fill="#B57C15"/>
<path fill-rule="evenodd" clip-rule="evenodd" d="M206.759 800.143L211.461 803.163L206.759 801.245V800.143Z" fill="#B57C15"/>
<path fill-rule="evenodd" clip-rule="evenodd" d="M218.473 803.98L216.203 805L214.865 797.898C214.865 797.898 217.338 801.122 218.473 803.98Z" fill="#B57C15"/>
<path fill-rule="evenodd" clip-rule="evenodd" d="M230.107 809.286L231.039 810.714L231.769 804.388L230.107 809.286Z" fill="#B57C15"/>
<path fill-rule="evenodd" clip-rule="evenodd" d="M230.917 826.102L234.241 828.51L235.944 827.163C235.984 827.122 233.309 825.653 230.917 826.102Z" fill="#B57C15"/>
<path fill-rule="evenodd" clip-rule="evenodd" d="M179.479 818.184L180.33 820.959L177.655 818.061L179.479 818.184Z" fill="#B57C15"/>
<path fill-rule="evenodd" clip-rule="evenodd" d="M186.41 810.306L187.504 807.571L187.018 804.388C187.058 804.388 186.369 807.857 186.41 810.306Z" fill="#B57C15"/>
</g>
<ellipse opacity="0.25" cx="209" cy="839.915" rx="36" ry="8.18165" fill="url(#paint24_radial_0_566)"/>
<ellipse opacity="0.25" cx="1088" cy="832" rx="46" ry="14" fill="url(#paint25_radial_0_566)"/>
<g clip-path="url(#clip10_0_566)">
<path d="M1105.6 804.4C1100.9 802.5 1096.1 801 1091.2 799.9C1087.5 799.1 1084.3 798.8 1081.6 799.1C1078.2 800.2 1074.1 802.1 1075.4 805.9C1077.4 811.7 1081.2 817.7 1081.2 817.7C1081.2 817.7 1095.4 815.1 1098.2 814.5C1099.8 814.2 1107.5 811.8 1114.2 808.8C1114 808.5 1113.9 808.2 1113.7 808C1112.4 806.2 1107.8 805.2 1105.6 804.4Z" fill="#E6A257"/>
<path d="M1080.5 813.1C1081.2 814.5 1082.2 815.9 1083.3 817.3C1083.3 817.3 1082 815.6 1080.5 813.1Z" fill="#B77A38"/>
<path d="M1079.4 825C1080.6 822.4 1083.8 818.7 1085.2 816.9C1084.1 815.5 1081.1 814.5 1080.4 813.1C1079.2 811.1 1077.8 808.5 1076.9 805.9C1075.6 802.1 1078.2 800.2 1081.5 799.1C1078.1 799.5 1075.2 800.7 1072.7 802.9C1068.3 806 1064.8 810.7 1062 815.8C1064.9 818.7 1069.6 821.4 1073.2 822.8C1075 823.5 1077.5 825.2 1079.4 825Z" fill="#DA903F"/>
<path d="M1118.3 829.7C1118.6 829.6 1117.7 821.4 1116.2 815C1116.1 815 1116 815 1115.8 815.1C1111.5 816.7 1107.4 818.8 1103.3 820.8C1099.6 822.6 1094.8 824 1091.6 826.5C1088.4 829.1 1086.2 835.2 1086.5 839.7C1086.7 839.7 1087 839.7 1087.2 839.7C1097.3 838.6 1108.7 832.8 1118.3 829.7Z" fill="#DA903F"/>
<path d="M1079.4 825C1077.5 825.2 1074.9 823.6 1073.2 822.8C1069.6 821.4 1065 818.7 1062 815.8C1059.5 820.4 1057.5 825.3 1056 829.5C1055.8 829.9 1066.2 835 1075.7 837.8C1076.5 835.4 1077.1 831.8 1077.7 829.9C1078.2 828.3 1078.4 826.4 1079.4 825Z" fill="#B77A38"/>
<path d="M1086.6 816.7C1084.7 817.1 1083.3 817.3 1083.3 817.3C1081.9 819.1 1080.7 822.3 1079.5 825C1081.6 822.3 1083.5 818.8 1084.1 818.2C1084.4 817.8 1085.4 817.2 1086.6 816.7Z" fill="#B77A38"/>
<path d="M1114.2 808.7C1107.4 811.8 1099.8 814.1 1098.2 814.4C1097.8 814.5 1097.3 814.6 1096.6 814.7C1095.5 817 1094.1 820.4 1092.4 822.1C1090.9 823.5 1088.3 823.9 1087 824.5C1086.1 824.9 1084.2 825.6 1083.3 826.2C1081.1 830 1080.4 833.6 1079.6 837.9C1079.5 838.2 1079.5 838.5 1079.4 838.7C1082 839.3 1084.5 839.7 1086.5 839.6C1086.2 835.2 1088.4 829 1091.6 826.4C1094.8 823.8 1099.6 822.4 1103.3 820.7C1107.4 818.7 1111.5 816.6 1115.8 815C1115.9 815 1116 815 1116.2 814.9C1115.6 812.4 1114.9 810.1 1114.2 808.7Z" fill="#B77A38"/>
<path d="M1096.9 814.2C1097.7 812.7 1090.6 814.8 1086.6 816.6C1089.6 816 1094 815.2 1096.6 814.7C1096.7 814.6 1096.8 814.4 1096.9 814.2Z" fill="#DA903F"/>
<path d="M1083.3 826.2C1084.2 825.7 1086.1 825 1087 824.5C1088.2 823.9 1090.9 823.5 1092.4 822.1C1094.2 820.4 1095.5 817 1096.6 814.7C1094 815.2 1089.6 816 1086.6 816.6C1085.4 817.1 1084.4 817.7 1084.1 818.1C1083.4 818.8 1081.6 822.2 1079.5 824.9C1078.4 826.3 1078.3 828.2 1077.8 829.9C1077.2 831.7 1076.6 835.4 1075.8 837.8C1077 838.2 1078.3 838.5 1079.5 838.8C1079.6 838.6 1079.7 838.3 1079.7 838C1080.4 833.6 1081.1 830 1083.3 826.2Z" fill="#DA903F"/>
<path d="M1113.3 809.2C1106.5 809.8 1099.3 812.4 1093.2 814C1087.9 815.4 1083.3 814.7 1079.5 810.5C1077.9 808.7 1076.3 804.4 1078.2 801C1075.3 801.4 1076.3 807.4 1077 809C1077.6 810.4 1077.9 812 1078.9 813.2C1080.3 815 1080.5 817.1 1080.5 817.1C1080.7 820.7 1078.9 822.2 1079.5 825.1C1083.2 820.6 1084.6 818.3 1090.3 816.6C1094.2 815.5 1104.8 812.7 1105.4 812.6C1107.5 811.8 1111.1 810.7 1113.3 809.2Z" fill="#FBC993"/>
<path d="M1105.4 816.7C1102.7 817.9 1103.7 818.5 1101.3 820.1C1100.4 820.7 1097 822.3 1095.8 823.2C1094.4 823.8 1090.8 824.4 1090.2 825.4C1090.1 825.6 1088.1 830 1088.2 831.4C1089.7 830 1090.9 827.5 1093.2 826C1096.2 825.5 1098.2 824.5 1100.4 822.9C1104.9 819.6 1109.2 818.4 1114.3 816C1111.1 815.8 1108.1 815.5 1105.4 816.7Z" fill="#FBC993"/>
</g>
</g>
<defs>
<radialGradient id="paint0_radial_0_566" cx="0" cy="0" r="1" gradientUnits="userSpaceOnUse" gradientTransform="translate(33 532.462) rotate(90) scale(5.53846 18)">
<stop/>
<stop offset="1" stop-opacity="0"/>
</radialGradient>
<radialGradient id="paint1_radial_0_566" cx="0" cy="0" r="1" gradientUnits="userSpaceOnUse" gradientTransform="translate(1250 532) rotate(90) scale(8 26)">
<stop/>
<stop offset="1" stop-opacity="0"/>
</radialGradient>
<radialGradient id="paint2_radial_0_566" cx="0" cy="0" r="1" gradientUnits="userSpaceOnUse" gradientTransform="translate(108.5 662) rotate(90) scale(6 18.5)">
<stop/>
<stop offset="1" stop-opacity="0"/>
</radialGradient>
<radialGradient id="paint3_radial_0_566" cx="0" cy="0" r="1" gradientUnits="userSpaceOnUse" gradientTransform="translate(1400.5 928) rotate(90) scale(6 18.5)">
<stop/>
<stop offset="1" stop-opacity="0"/>
</radialGradient>
<radialGradient id="paint4_radial_0_566" cx="0" cy="0" r="1" gradientUnits="userSpaceOnUse" gradientTransform="translate(1344 756) rotate(90) scale(8 26)">
<stop/>
<stop offset="1" stop-opacity="0"/>
</radialGradient>
<radialGradient id="paint5_radial_0_566" cx="0" cy="0" r="1" gradientUnits="userSpaceOnUse" gradientTransform="translate(1398 588.077) rotate(90) scale(4.92308 16)">
<stop/>
<stop offset="1" stop-opacity="0"/>
</radialGradient>
<radialGradient id="paint6_radial_0_566" cx="0" cy="0" r="1" gradientUnits="userSpaceOnUse" gradientTransform="translate(411 752.955) rotate(90) scale(10.6469 26)">
<stop/>
<stop offset="1" stop-opacity="0"/>
</radialGradient>
<radialGradient id="paint7_radial_0_566" cx="0" cy="0" r="1" gradientUnits="userSpaceOnUse" gradientTransform="translate(41 936.955) rotate(90) scale(10.6469 26)">
<stop/>
<stop offset="1" stop-opacity="0"/>
</radialGradient>
<linearGradient id="paint8_linear_0_566" x1="177.636" y1="829.489" x2="205.844" y2="829.489" gradientUnits="userSpaceOnUse">
<stop offset="0.0361552" stop-color="#9AAB72"/>
<stop offset="1" stop-color="#5B5945"/>
</linearGradient>
<linearGradient id="paint9_linear_0_566" x1="212.748" y1="832.488" x2="235.968" y2="832.488" gradientUnits="userSpaceOnUse">
<stop stop-color="#5B5945"/>
<stop offset="0.9638" stop-color="#9AAB72"/>
</linearGradient>
<linearGradient id="paint10_linear_0_566" x1="174.412" y1="835.779" x2="208.565" y2="835.779" gradientUnits="userSpaceOnUse">
<stop offset="0.0361552" stop-color="#9AAB72"/>
<stop offset="1" stop-color="#5B5945"/>
</linearGradient>
<linearGradient id="paint11_linear_0_566" x1="218.469" y1="840.92" x2="218.469" y2="802.678" gradientUnits="userSpaceOnUse">
<stop offset="0.00558659" stop-color="#424243"/>
<stop offset="0.9638" stop-color="#544F4A"/>
</linearGradient>
<linearGradient id="paint12_linear_0_566" x1="199.303" y1="840.028" x2="199.303" y2="804.378" gradientUnits="userSpaceOnUse">
<stop offset="0.00558659" stop-color="#424243"/>
<stop offset="0.9638" stop-color="#544F4A"/>
</linearGradient>
<linearGradient id="paint13_linear_0_566" x1="214.7" y1="840.92" x2="214.7" y2="797.883" gradientUnits="userSpaceOnUse">
<stop offset="0.00558659" stop-color="#424243"/>
<stop offset="0.9638" stop-color="#544F4A"/>
</linearGradient>
<linearGradient id="paint14_linear_0_566" x1="203.927" y1="841.312" x2="197.313" y2="795.329" gradientUnits="userSpaceOnUse">
<stop offset="0.00558659" stop-color="#424243"/>
<stop offset="0.9638" stop-color="#544F4A"/>
</linearGradient>
<linearGradient id="paint15_linear_0_566" x1="206.599" y1="840.92" x2="206.599" y2="795.193" gradientUnits="userSpaceOnUse">
<stop offset="0.00558659" stop-color="#424243"/>
<stop offset="0.9638" stop-color="#544F4A"/>
</linearGradient>
<linearGradient id="paint16_linear_0_566" x1="209.577" y1="840.92" x2="209.577" y2="793" gradientUnits="userSpaceOnUse">
<stop stop-color="#5B5943"/>
<stop offset="0.3212" stop-color="#58665A"/>
<stop offset="0.9694" stop-color="#518188"/>
</linearGradient>
<linearGradient id="paint17_linear_0_566" x1="202.966" y1="841.45" x2="196.352" y2="795.467" gradientUnits="userSpaceOnUse">
<stop stop-color="#5B5943"/>
<stop offset="0.3212" stop-color="#58665A"/>
<stop offset="0.9694" stop-color="#518188"/>
</linearGradient>
<linearGradient id="paint18_linear_0_566" x1="216.381" y1="840.92" x2="216.381" y2="797.883" gradientUnits="userSpaceOnUse">
<stop stop-color="#5B5943"/>
<stop offset="0.9583" stop-color="#547C68"/>
</linearGradient>
<linearGradient id="paint19_linear_0_566" x1="221.636" y1="840.92" x2="221.636" y2="804.378" gradientUnits="userSpaceOnUse">
<stop stop-color="#5B5945"/>
<stop offset="0.9806" stop-color="#6F8372"/>
</linearGradient>
<linearGradient id="paint20_linear_0_566" x1="196.871" y1="840.92" x2="196.871" y2="804.378" gradientUnits="userSpaceOnUse">
<stop stop-color="#5B5945"/>
<stop offset="0.9806" stop-color="#6F8372"/>
</linearGradient>
<linearGradient id="paint21_linear_0_566" x1="228.947" y1="840.92" x2="228.947" y2="827.133" gradientUnits="userSpaceOnUse">
<stop stop-color="#5B5945"/>
<stop offset="0.9806" stop-color="#6F8372"/>
</linearGradient>
<linearGradient id="paint22_linear_0_566" x1="190.051" y1="840.991" x2="190.051" y2="830.613" gradientUnits="userSpaceOnUse">
<stop stop-color="#5B5945"/>
<stop offset="0.9806" stop-color="#6F8372"/>
</linearGradient>
<linearGradient id="paint23_linear_0_566" x1="212.748" y1="834.027" x2="244.283" y2="834.027" gradientUnits="userSpaceOnUse">
<stop stop-color="#5B5945"/>
<stop offset="0.9638" stop-color="#9AAB72"/>
</linearGradient>
<radialGradient id="paint24_radial_0_566" cx="0" cy="0" r="1" gradientUnits="userSpaceOnUse" gradientTransform="translate(209 839.915) rotate(90) scale(8.18165 36)">
<stop/>
<stop offset="1" stop-opacity="0"/>
</radialGradient>
<radialGradient id="paint25_radial_0_566" cx="0" cy="0" r="1" gradientUnits="userSpaceOnUse" gradientTransform="translate(1088 832) rotate(90) scale(14 46)">
<stop/>
<stop offset="1" stop-opacity="0"/>
</radialGradient>
<clipPath id="clip0_0_566">
<rect width="1440" height="1024" fill="white"/>
</clipPath>
<clipPath id="clip1_0_566">
<rect width="21.7385" height="14.8846" fill="white" transform="translate(22.6155 520)"/>
</clipPath>
<clipPath id="clip2_0_566">
<rect width="31.4" height="21.5" fill="white" transform="translate(1235 514)"/>
</clipPath>
<clipPath id="clip3_0_566">
<rect width="17.8" height="22.1" fill="white" transform="translate(99 642)"/>
</clipPath>
<clipPath id="clip4_0_566">
<rect width="17.8" height="22.1" fill="white" transform="translate(1391 908)"/>
</clipPath>
<clipPath id="clip5_0_566">
<rect width="33.5" height="21.9" fill="white" transform="translate(1327 738)"/>
</clipPath>
<clipPath id="clip6_0_566">
<rect width="20.6154" height="13.4769" fill="white" transform="translate(1387.54 577)"/>
</clipPath>
<clipPath id="clip7_0_566">
<rect width="32.9" height="29.8113" fill="white" transform="translate(394 729)"/>
</clipPath>
<clipPath id="clip8_0_566">
<rect width="32.9" height="29.8113" fill="white" transform="translate(24 913)"/>
</clipPath>
<clipPath id="clip9_0_566">
<rect width="69.8824" height="48" fill="white" transform="translate(174.412 793)"/>
</clipPath>
<clipPath id="clip10_0_566">
<rect width="62.4" height="40.7" fill="white" transform="translate(1056 799)"/>
</clipPath>
</defs>
</svg>
