<svg width="25" height="24" viewBox="0 0 25 24" fill="none" xmlns="http://www.w3.org/2000/svg">
<g clip-path="url(#clip0_0_702)">
<path d="M11 21C11 21 9.5 21 9.5 19.5C9.5 18 11 13.5 17 13.5C23 13.5 24.5 18 24.5 19.5C24.5 21 23 21 23 21H11ZM17 12C18.1935 12 19.3381 11.5259 20.182 10.682C21.0259 9.83807 21.5 8.69347 21.5 7.5C21.5 6.30653 21.0259 5.16193 20.182 4.31802C19.3381 3.47411 18.1935 3 17 3C15.8065 3 14.6619 3.47411 13.818 4.31802C12.9741 5.16193 12.5 6.30653 12.5 7.5C12.5 8.69347 12.9741 9.83807 13.818 10.682C14.6619 11.5259 15.8065 12 17 12Z" fill="white"/>
<path fill-rule="evenodd" clip-rule="evenodd" d="M8.324 20.9999C8.10163 20.5316 7.99073 20.0182 8 19.4999C8 17.4674 9.02 15.3749 10.904 13.9199C9.96363 13.6302 8.98392 13.4885 8 13.4999C2 13.4999 0.5 17.9999 0.5 19.4999C0.5 20.9999 2 20.9999 2 20.9999H8.324Z" fill="white"/>
<path d="M7.25 12C8.24456 12 9.19839 11.6049 9.90165 10.9017C10.6049 10.1984 11 9.24456 11 8.25C11 7.25544 10.6049 6.30161 9.90165 5.59835C9.19839 4.89509 8.24456 4.5 7.25 4.5C6.25544 4.5 5.30161 4.89509 4.59835 5.59835C3.89509 6.30161 3.5 7.25544 3.5 8.25C3.5 9.24456 3.89509 10.1984 4.59835 10.9017C5.30161 11.6049 6.25544 12 7.25 12Z" fill="white"/>
</g>
<defs>
<clipPath id="clip0_0_702">
<rect width="24" height="24" fill="white" transform="translate(0.5)"/>
</clipPath>
</defs>
</svg>
