<svg width="24" height="24" viewBox="0 0 24 24" fill="none" xmlns="http://www.w3.org/2000/svg">
<rect width="24" height="24" rx="12" fill="white"/>
<path d="M12.0708 19C11.0922 18.9999 10.1362 18.7058 9.32674 18.1559C8.51729 17.606 7.89171 16.8255 7.53112 15.9158C7.17054 15.006 7.09158 14.009 7.30448 13.0538C7.51738 12.0986 8.01232 11.2295 8.72513 10.559C9.59899 9.73656 11.7452 8.25581 11.4196 5C15.3266 7.60465 17.2801 10.2093 13.3731 14.1163C14.0243 14.1163 15.001 14.1163 16.6289 12.5079C16.8048 13.0113 16.9545 13.5524 16.9545 14.1163C16.9545 15.4115 16.44 16.6537 15.5241 17.5696C14.6082 18.4855 13.366 19 12.0708 19Z" fill="#B56F01"/>
</svg>
