<svg width="24" height="24" viewBox="0 0 24 24" fill="none" xmlns="http://www.w3.org/2000/svg">
<path d="M19.43 12.975C19.47 12.655 19.5 12.33 19.5 12C19.5 11.67 19.47 11.345 19.43 11.025L21.545 9.37C21.735 9.22 21.79 8.95 21.665 8.73L19.665 5.265C19.54 5.05 19.28 4.96 19.055 5.05L16.5649 6.055C16.0499 5.66 15.4849 5.325 14.8749 5.07L14.4999 2.42C14.4549 2.185 14.2499 2 13.9999 2H9.99995C9.74995 2 9.54495 2.185 9.50495 2.42L9.12995 5.07C8.51995 5.325 7.95495 5.655 7.43995 6.055L4.94995 5.05C4.72495 4.965 4.46495 5.05 4.33995 5.265L2.33995 8.73C2.21495 8.945 2.26995 9.215 2.45995 9.37L4.56995 11.025C4.52995 11.345 4.49995 11.67 4.49995 12C4.49995 12.33 4.52995 12.655 4.56995 12.975L2.45995 14.63C2.26995 14.78 2.21495 15.05 2.33995 15.27L4.33995 18.735C4.46495 18.95 4.72495 19.04 4.94995 18.95L7.43995 17.945C7.95495 18.34 8.51995 18.675 9.12995 18.93L9.50495 21.58C9.54495 21.815 9.74995 22 9.99995 22H13.9999C14.2499 22 14.4549 21.815 14.4949 21.58L14.8699 18.93C15.4799 18.675 16.0449 18.345 16.5599 17.945L19.0499 18.95C19.275 19.035 19.535 18.95 19.66 18.735L21.66 15.27C21.785 15.055 21.73 14.785 21.54 14.63L19.43 12.975ZM11.9999 15.5C10.0649 15.5 8.49995 13.935 8.49995 12C8.49995 10.065 10.0649 8.5 11.9999 8.5C13.9349 8.5 15.4999 10.065 15.4999 12C15.4999 13.935 13.9349 15.5 11.9999 15.5Z" fill="white"/>
</svg>
