<svg width="25" height="24" viewBox="0 0 25 24" fill="none" xmlns="http://www.w3.org/2000/svg">
<g clip-path="url(#clip0_0_169)">
<path d="M24.4947 4.55775C23.612 4.95 22.664 5.21475 21.6672 5.3325C22.6835 4.7235 23.4642 3.759 23.8325 2.61C22.8807 3.17325 21.8277 3.58425 20.7065 3.804C19.808 2.84775 18.5285 2.25 17.1117 2.25C14.393 2.25 12.1902 4.4535 12.1902 7.17225C12.1902 7.55775 12.233 7.93425 12.317 8.29425C8.22573 8.08875 4.59873 6.129 2.17023 3.15075C1.74723 3.87825 1.50423 4.7235 1.50423 5.62575C1.50423 7.33425 2.37348 8.84025 3.69348 9.72375C2.88723 9.6975 2.12823 9.477 1.46448 9.108C1.46373 9.12825 1.46373 9.15 1.46373 9.1695C1.46373 11.5553 3.16023 13.545 5.41248 13.9972C4.99998 14.109 4.56498 14.1698 4.11573 14.1698C3.79773 14.1698 3.49023 14.139 3.19023 14.082C3.81573 16.0365 5.63448 17.46 7.78773 17.5005C6.10398 18.8205 3.98148 19.6087 1.67523 19.6087C1.27773 19.6087 0.885482 19.5855 0.500732 19.5397C2.67873 20.9347 5.26623 21.75 8.04648 21.75C17.1005 21.75 22.0527 14.2492 22.0527 7.74375C22.0527 7.53075 22.0467 7.31775 22.0377 7.10625C23 6.4125 23.834 5.54625 24.4947 4.55775Z" fill="white"/>
</g>
<defs>
<clipPath id="clip0_0_169">
<rect width="24" height="24" fill="white" transform="translate(0.5)"/>
</clipPath>
</defs>
</svg>
