<svg width="24" height="24" viewBox="0 0 24 24" fill="none" xmlns="http://www.w3.org/2000/svg">
<path d="M21.3455 11.9986L23.508 9.85212C23.663 9.69698 23.7861 9.5128 23.87 9.31009C23.954 9.10739 23.9972 8.89014 23.9972 8.67073C23.9972 8.45133 23.954 8.23407 23.87 8.03137C23.7861 7.82867 23.663 7.64449 23.508 7.48935C23.3529 7.3342 23.1687 7.21114 22.9661 7.12718C22.7634 7.04321 22.5462 7 22.3269 7C22.1076 7 21.8904 7.04321 21.6877 7.12718C21.4851 7.21114 21.301 7.3342 21.1459 7.48935L19 9.65245L16.8541 7.48935C16.5409 7.17602 16.1161 7 15.6731 7C15.2301 7 14.8053 7.17602 14.492 7.48935C14.1788 7.80267 14.0028 8.22763 14.0028 8.67073C14.0028 9.11384 14.1788 9.53879 14.492 9.85212L16.6545 11.9986L14.492 14.145C14.3361 14.2997 14.2124 14.4838 14.1279 14.6865C14.0435 14.8893 14 15.1068 14 15.3264C14 15.5461 14.0435 15.7636 14.1279 15.9663C14.2124 16.1691 14.3361 16.3531 14.492 16.5078C14.6467 16.6638 14.8307 16.7876 15.0334 16.872C15.2361 16.9565 15.4535 17 15.6731 17C15.8927 17 16.1101 16.9565 16.3128 16.872C16.5155 16.7876 16.6995 16.6638 16.8541 16.5078L19 14.3447L21.1459 16.5078C21.3005 16.6638 21.4845 16.7876 21.6872 16.872C21.8899 16.9565 22.1073 17 22.3269 17C22.5465 17 22.7639 16.9565 22.9666 16.872C23.1693 16.7876 23.3533 16.6638 23.508 16.5078C23.6639 16.3531 23.7876 16.1691 23.8721 15.9663C23.9565 15.7636 24 15.5461 24 15.3264C24 15.1068 23.9565 14.8893 23.8721 14.6865C23.7876 14.4838 23.6639 14.2997 23.508 14.145L21.3455 11.9986Z" fill="white"/>
<path d="M13.845 17.6662C13.147 16.9592 12.7556 16.0059 12.7556 15.0127C12.7556 14.0194 13.147 13.0661 13.845 12.3592L14.19 12.0143L13.845 11.6695C13.2639 11.0464 12.9135 10.2435 12.852 9.39394C12.7904 8.54439 13.0214 7.69935 13.5066 6.9991C13.9918 6.29884 14.702 5.78548 15.5194 5.54424C16.3367 5.30299 17.212 5.34837 18 5.67284V1.52012C17.9993 1.24892 17.925 0.982986 17.785 0.750661C17.645 0.518335 17.4445 0.328318 17.205 0.200851C16.977 0.0692712 16.7183 0 16.455 0C16.1917 0 15.933 0.0692712 15.705 0.200851L7.05 6.01765H3C2.20435 6.01765 1.44129 6.33354 0.87868 6.89584C0.31607 7.45814 0 8.22078 0 9.01599V15.0127C0 15.8079 0.31607 16.5705 0.87868 17.1328C1.44129 17.6951 2.20435 18.011 3 18.011H7.05L15.675 23.7529C15.9006 23.9014 16.1621 23.9862 16.432 23.9985C16.7018 24.0107 16.97 23.9499 17.2081 23.8224C17.4462 23.695 17.6455 23.5056 17.7849 23.2744C17.9243 23.0431 17.9986 22.7785 18 22.5086V18.4158C17.3092 18.7064 16.5488 18.7903 15.8112 18.6572C15.0736 18.5242 14.3906 18.1799 13.845 17.6662Z" fill="white"/>
</svg>
