<svg width="24" height="24" viewBox="0 0 24 24" fill="none" xmlns="http://www.w3.org/2000/svg">
<path d="M12 23.625C18.4125 23.625 23.625 18.4125 23.625 12C23.625 5.5875 18.4125 0.375 12 0.375C5.5875 0.375 0.375 5.5875 0.375 12C0.375 18.4125 5.5875 23.625 12 23.625ZM3 16.6312L7.725 16.5938C8.25 18.4875 9.13125 20.325 10.3312 21.975C7.125 21.45 4.44375 19.4062 3 16.6312ZM8.925 8.8125H14.8125C15.2437 10.875 15.2437 12.9938 14.85 15.0563L8.925 15.0938C8.49375 13.0125 8.49375 10.875 8.925 8.8125ZM11.8687 21.5438C10.6875 20.025 9.825 18.3563 9.3 16.5938L14.4562 16.5563C13.9125 18.3188 13.05 20.0063 11.8687 21.5438ZM13.3688 22.0312C14.6063 20.3438 15.4875 18.4875 16.0125 16.5375L21.0563 16.5C19.5938 19.4438 16.7438 21.5625 13.3688 22.0312ZM22.125 12C22.125 13.05 21.9562 14.0625 21.675 15L16.3688 15.0375C16.7438 12.975 16.725 10.875 16.3312 8.8125H21.6C21.9375 9.80625 22.125 10.8938 22.125 12ZM20.9625 7.3125H15.975C15.4312 5.4375 14.5688 3.61875 13.3688 1.96875C16.6875 2.41875 19.4813 4.4625 20.9625 7.3125ZM14.4188 7.3125H9.31875C9.8625 5.5875 10.7063 3.95625 11.8687 2.45625C13.0312 3.95625 13.875 5.5875 14.4188 7.3125ZM10.3312 2.025C9.15 3.65625 8.2875 5.4375 7.7625 7.3125H3.0375C4.48125 4.55625 7.14375 2.55 10.3312 2.025ZM7.40625 8.8125C7.0125 10.8938 7.0125 13.0125 7.3875 15.0938L2.38125 15.1312C2.04375 14.1375 1.875 13.0875 1.875 12C1.875 10.8938 2.0625 9.80625 2.4 8.8125H7.40625Z" fill="white"/>
</svg>
